<svg width="194" height="75" viewBox="0 0 194 75" fill="none" xmlns="http://www.w3.org/2000/svg">
<path d="M28 9.58984L30 9.75V31.75H28V9.58984Z" fill="#1B1D20"/>
<rect x="30.4816" y="7" width="2" height="3.5835" transform="rotate(43.8296 30.4816 7)" fill="#1B1D20"/>
<path d="M12 64L1.5 53.5V43L17.5 41.5L56.5 36.5L149.5 39L171 36.5V20.5C177 26.3333 189.5 38.9 191.5 42.5C194 47 193 60.5 193 67.5C193 73.1 190.333 74.8333 189 75L49 74L38 52H31.5L43.5 75H28L17.5 65L12 64Z" fill="url(#paint0_radial_2695_18870)"/>
<path d="M12 64L1.5 53.5V43L17.5 41.5L56.5 36.5L149.5 39L171 36.5V20.5C177 26.3333 189.5 38.9 191.5 42.5C194 47 193 60.5 193 67.5C193 73.1 190.333 74.8333 189 75L49 74L38 52H31.5L43.5 75H28L17.5 65L12 64Z" fill="url(#paint1_radial_2695_18870)"/>
<path d="M12 64L1.5 53.5V43L17.5 41.5L56.5 36.5L149.5 39L171 36.5V20.5C177 26.3333 189.5 38.9 191.5 42.5C194 47 193 60.5 193 67.5C193 73.1 190.333 74.8333 189 75L49 74L38 52H31.5L43.5 75H28L17.5 65L12 64Z" fill="url(#paint2_radial_2695_18870)"/>
<path d="M12 64L1.5 53.5V43L17.5 41.5L56.5 36.5L149.5 39L171 36.5V20.5C177 26.3333 189.5 38.9 191.5 42.5C194 47 193 60.5 193 67.5C193 73.1 190.333 74.8333 189 75L49 74L38 52H31.5L43.5 75H28L17.5 65L12 64Z" fill="url(#paint3_radial_2695_18870)"/>
<path d="M12 64L1.5 53.5V43L17.5 41.5L56.5 36.5L149.5 39L171 36.5V20.5C177 26.3333 189.5 38.9 191.5 42.5C194 47 193 60.5 193 67.5C193 73.1 190.333 74.8333 189 75L49 74L38 52H31.5L43.5 75H28L17.5 65L12 64Z" fill="url(#paint4_radial_2695_18870)"/>
<path d="M12 64L1.5 53.5V43L17.5 41.5L56.5 36.5L149.5 39L171 36.5V20.5C177 26.3333 189.5 38.9 191.5 42.5C194 47 193 60.5 193 67.5C193 73.1 190.333 74.8333 189 75L49 74L38 52H31.5L43.5 75H28L17.5 65L12 64Z" fill="url(#paint5_radial_2695_18870)"/>
<path d="M12 64L1.5 53.5V43L17.5 41.5L56.5 36.5L149.5 39L171 36.5V20.5C177 26.3333 189.5 38.9 191.5 42.5C194 47 193 60.5 193 67.5C193 73.1 190.333 74.8333 189 75L49 74L38 52H31.5L43.5 75H28L17.5 65L12 64Z" fill="url(#paint6_radial_2695_18870)"/>
<path d="M12 64L1.5 53.5V43L17.5 41.5L56.5 36.5L149.5 39L171 36.5V20.5C177 26.3333 189.5 38.9 191.5 42.5C194 47 193 60.5 193 67.5C193 73.1 190.333 74.8333 189 75L49 74L38 52H31.5L43.5 75H28L17.5 65L12 64Z" fill="url(#paint7_radial_2695_18870)"/>
<path fill-rule="evenodd" clip-rule="evenodd" d="M20 45.5V50.5H16.9316C15.4587 51.4367 13.5654 52 11.5 52C9.43461 52 7.54128 51.4367 6.0684 50.5H3V46V45.5V45H3.02477C3.35864 41.6438 7.02558 39 11.5 39C15.9744 39 19.6414 41.6438 19.9752 45H20V45.5Z" fill="#0C0D0E"/>
<path d="M0.998047 45.8633V32.0005L19 32.9922L23 23.4922L30 23.5005V46.0009L21 45.9926C19.5 43.4922 18.5 39.9922 11.5 39.9922C4 39.9922 2 45.8633 2 45.8633H0.998047Z" fill="#1B1D20"/>
<path d="M30 16V26H22V16H30Z" fill="#363D46"/>
<path d="M19 27V33L1 32V27H19Z" fill="#363D46"/>
<path d="M18 23.5V27.5L1 28V25.5L18 23.5Z" fill="#515862"/>
<path d="M0.998047 43V35.3711H0.5V43.5H1L0.998047 43Z" fill="#363D46"/>
<path d="M1 46.0717V43.5H0.5V46.0717H1Z" fill="#1B1D20"/>
<ellipse cx="11.5" cy="49.5" rx="8.5" ry="6.5" fill="#16171A"/>
<ellipse cx="11.5" cy="49.5" rx="4.5" ry="3.5" fill="#455255"/>
<ellipse cx="11.5" cy="48.5" rx="3.5" ry="2.5" fill="#576C71"/>
<path d="M27.5 33H18V23.5L22 16V26H27.5V33Z" fill="#B8A26A"/>
<g style="mix-blend-mode:screen" filter="url(#filter0_f_2695_18870)">
<path d="M27.5 33H18V23.5L22 16V26H27.5V33Z" fill="#DDBC66"/>
</g>
<path fill-rule="evenodd" clip-rule="evenodd" d="M80 40H30V46H46.5V42H80V40Z" fill="#1B1D20"/>
<path fill-rule="evenodd" clip-rule="evenodd" d="M151 40H95V47H118V42H151V40Z" fill="#1B1D20"/>
<path fill-rule="evenodd" clip-rule="evenodd" d="M83.9961 45.5V50.5H80.9277C79.4548 51.4367 77.5615 52 75.4961 52C73.4307 52 71.5374 51.4367 70.0645 50.5H66.9961V46V45.5V45H67.0209C67.3547 41.6438 71.0217 39 75.4961 39C79.9705 39 83.6374 41.6438 83.9713 45H83.9961V45.5Z" fill="#0C0D0E"/>
<ellipse cx="75.4961" cy="49.5" rx="8.5" ry="6.5" fill="#16171A"/>
<ellipse cx="75.4961" cy="49.5" rx="4.5" ry="3.5" fill="#455255"/>
<ellipse cx="75.4961" cy="48.5" rx="3.5" ry="2.5" fill="#576C71"/>
<path fill-rule="evenodd" clip-rule="evenodd" d="M65 45.5V50.5H61.9316C60.4587 51.4367 58.5654 52 56.5 52C54.4346 52 52.5413 51.4367 51.0684 50.5H48V46V45.5V45H48.0248C48.3586 41.6438 52.0256 39 56.5 39C60.9744 39 64.6414 41.6438 64.9752 45H65V45.5Z" fill="#0C0D0E"/>
<ellipse cx="56.5" cy="49.5" rx="8.5" ry="6.5" fill="#16171A"/>
<ellipse cx="56.5" cy="49.5" rx="4.5" ry="3.5" fill="#455255"/>
<ellipse cx="56.5" cy="48.5" rx="3.5" ry="2.5" fill="#576C71"/>
<rect x="45" y="21" width="3" height="19" fill="#272B30"/>
<path fill-rule="evenodd" clip-rule="evenodd" d="M157.996 44.5V49.5H154.928C153.455 50.4367 151.561 51 149.496 51C147.431 51 145.537 50.4367 144.064 49.5H140.996V45V44.5V44H141.021C141.355 40.6438 145.022 38 149.496 38C153.971 38 157.637 40.6438 157.971 44H157.996V44.5Z" fill="#0C0D0E"/>
<ellipse cx="149.496" cy="48.5" rx="8.5" ry="6.5" fill="#16171A"/>
<ellipse cx="149.496" cy="48.5" rx="4.5" ry="3.5" fill="#455255"/>
<ellipse cx="149.496" cy="47.5" rx="3.5" ry="2.5" fill="#576C71"/>
<path fill-rule="evenodd" clip-rule="evenodd" d="M139 44.5V49.5H135.932C134.459 50.4367 132.565 51 130.5 51C128.435 51 126.541 50.4367 125.068 49.5H122V45V44.5V44H122.025C122.359 40.6438 126.026 38 130.5 38C134.974 38 138.641 40.6438 138.975 44H139V44.5Z" fill="#0C0D0E"/>
<ellipse cx="130.5" cy="48.5" rx="8.5" ry="6.5" fill="#16171A"/>
<ellipse cx="130.5" cy="48.5" rx="4.5" ry="3.5" fill="#455255"/>
<ellipse cx="130.5" cy="47.5" rx="3.5" ry="2.5" fill="#576C71"/>
<rect x="45" y="12" width="127" height="29" fill="#0F1012"/>
<rect x="45" width="127" height="12" fill="#1B1D20"/>
<rect width="0.5" height="3" transform="matrix(-1 0 0 1 1.5 41)" fill="white"/>
<path d="M14 36.5C7.76551 34.7997 3 38 1 40.5V32L18 33H27.5V26H30V43.5H21.5C20.5 41.5 19.5 38 14 36.5Z" fill="#151618"/>
<path d="M45 33.0137H30V15.9994C34.8 9.59945 42 9.83285 45 9.99951V33.0137Z" fill="#363D46"/>
<path d="M45 43.501H30V26.001C34.8 19.601 42 19.3338 45 19.5005V43.501Z" fill="#151618"/>
<path d="M32 26.5L33.1723 25.4742C34.9952 23.8792 37.3351 23 39.7574 23H42V26.5H32Z" fill="#0C0D0E"/>
<path d="M40 31L43 31L43 37L40 37L40 31Z" fill="#0C0D0E"/>
<path d="M18 37.5V33H27.5V42H22C21.6 40 19.1667 38.1667 18 37.5Z" fill="#232629"/>
<path d="M30.5 16.5V24C30.9 23.2 32.3333 22 33 21.5V14C32.2 14.4 31 15.8333 30.5 16.5Z" fill="#0C0D0E"/>
<path d="M28 21.5898L30 21.75V43.75H28V21.5898Z" fill="#1B1D20"/>
<rect x="30.4816" y="19" width="2" height="3.5835" transform="rotate(43.8296 30.4816 19)" fill="#1B1D20"/>
<defs>
<filter id="filter0_f_2695_18870" x="12" y="10" width="21.5" height="29" filterUnits="userSpaceOnUse" color-interpolation-filters="sRGB">
<feFlood flood-opacity="0" result="BackgroundImageFix"/>
<feBlend mode="normal" in="SourceGraphic" in2="BackgroundImageFix" result="shape"/>
<feGaussianBlur stdDeviation="3" result="effect1_foregroundBlur_2695_18870"/>
</filter>
<radialGradient id="paint0_radial_2695_18870" cx="0" cy="0" r="1" gradientUnits="userSpaceOnUse" gradientTransform="translate(80 37) rotate(90) scale(48 191.169)">
<stop offset="0.049745"/>
<stop offset="0.780137" stop-color="#020202" stop-opacity="0"/>
</radialGradient>
<radialGradient id="paint1_radial_2695_18870" cx="0" cy="0" r="1" gradientUnits="userSpaceOnUse" gradientTransform="translate(134.5 30.5) rotate(90) scale(55 112.412)">
<stop offset="0.049745"/>
<stop offset="0.780137" stop-color="#020202" stop-opacity="0"/>
</radialGradient>
<radialGradient id="paint2_radial_2695_18870" cx="0" cy="0" r="1" gradientUnits="userSpaceOnUse" gradientTransform="translate(18.5 52.5) rotate(90) scale(7 15.863)">
<stop/>
<stop offset="1" stop-opacity="0"/>
</radialGradient>
<radialGradient id="paint3_radial_2695_18870" cx="0" cy="0" r="1" gradientUnits="userSpaceOnUse" gradientTransform="translate(60 53.5) rotate(90) scale(9 20.3952)">
<stop/>
<stop offset="1" stop-opacity="0"/>
</radialGradient>
<radialGradient id="paint4_radial_2695_18870" cx="0" cy="0" r="1" gradientUnits="userSpaceOnUse" gradientTransform="translate(79 53.5) rotate(90) scale(8.5 19.2622)">
<stop/>
<stop offset="1" stop-opacity="0"/>
</radialGradient>
<radialGradient id="paint5_radial_2695_18870" cx="0" cy="0" r="1" gradientUnits="userSpaceOnUse" gradientTransform="translate(134.5 51.5) rotate(90) scale(10.5 23.7944)">
<stop/>
<stop offset="1" stop-opacity="0"/>
</radialGradient>
<radialGradient id="paint6_radial_2695_18870" cx="0" cy="0" r="1" gradientUnits="userSpaceOnUse" gradientTransform="translate(150 52) rotate(90) scale(11.5 26.0606)">
<stop/>
<stop offset="1" stop-opacity="0"/>
</radialGradient>
<radialGradient id="paint7_radial_2695_18870" cx="0" cy="0" r="1" gradientUnits="userSpaceOnUse" gradientTransform="translate(60 37) rotate(90) scale(25.5 111.666)">
<stop/>
<stop offset="1" stop-opacity="0"/>
</radialGradient>
</defs>
</svg>
