<svg width="112" height="76" viewBox="0 0 112 76" fill="none" xmlns="http://www.w3.org/2000/svg">
<path d="M16.0039 64.6289L3.00391 46.6289L4.00391 44.6289L62.0039 38.6289H69L89 46.1289V21.1289C95 26.9622 107.5 39.5289 109.5 43.1289C112 47.6289 111 61.1289 111 68.1289C111 73.7289 108.333 75.4622 107 75.6289L53.0039 74.6289L42.0039 52.6289H35.5039L47.5039 75.6289H32.0039L21.5039 65.6289L16.0039 64.6289Z" fill="url(#paint0_radial_161_6769)"/>
<path d="M16.0039 64.6289L3.00391 46.6289L4.00391 44.6289L62.0039 38.6289H69L89 46.1289V21.1289C95 26.9622 107.5 39.5289 109.5 43.1289C112 47.6289 111 61.1289 111 68.1289C111 73.7289 108.333 75.4622 107 75.6289L53.0039 74.6289L42.0039 52.6289H35.5039L47.5039 75.6289H32.0039L21.5039 65.6289L16.0039 64.6289Z" fill="url(#paint1_radial_161_6769)"/>
<path d="M16.0039 64.6289L3.00391 46.6289L4.00391 44.6289L62.0039 38.6289H69L89 46.1289V21.1289C95 26.9622 107.5 39.5289 109.5 43.1289C112 47.6289 111 61.1289 111 68.1289C111 73.7289 108.333 75.4622 107 75.6289L53.0039 74.6289L42.0039 52.6289H35.5039L47.5039 75.6289H32.0039L21.5039 65.6289L16.0039 64.6289Z" fill="url(#paint2_radial_161_6769)"/>
<path d="M16.0039 64.6289L3.00391 46.6289L4.00391 44.6289L62.0039 38.6289H69L89 46.1289V21.1289C95 26.9622 107.5 39.5289 109.5 43.1289C112 47.6289 111 61.1289 111 68.1289C111 73.7289 108.333 75.4622 107 75.6289L53.0039 74.6289L42.0039 52.6289H35.5039L47.5039 75.6289H32.0039L21.5039 65.6289L16.0039 64.6289Z" fill="url(#paint3_radial_161_6769)"/>
<path fill-rule="evenodd" clip-rule="evenodd" d="M32 46.1289V51.1289H28.9316C27.4587 52.0656 25.5654 52.6289 23.5 52.6289C21.4346 52.6289 19.5413 52.0656 18.0684 51.1289H15V46.6289V46.1289V45.6289H15.0248C15.3586 42.2727 19.0256 39.6289 23.5 39.6289C27.9744 39.6289 31.6414 42.2727 31.9752 45.6289H32V46.1289Z" fill="#0C0D0E"/>
<path d="M5 46.5V35L11 32L19 17H35V46.6293H34L29 41.5H18L13 46.5H5Z" fill="#1B1D20"/>
<path d="M35 5V17H19V5H35Z" fill="#363D46"/>
<path d="M19 5V17L11 32V20L19 5Z" fill="#515862"/>
<path d="M11 20V32L5 35V23L11 20Z" fill="#363D46"/>
<path d="M5 43.5V36H3.5V44H6.5L8 43.5H5Z" fill="#363D46"/>
<path d="M8 46.5V43.5L6.5 44H3.5V47H6.5L8 46.5Z" fill="#1B1D20"/>
<ellipse cx="23.5" cy="50.1289" rx="8.5" ry="6.5" fill="#16171A"/>
<ellipse cx="23.5" cy="50.1289" rx="4.5" ry="3.5" fill="#455255"/>
<ellipse cx="23.5" cy="49.1289" rx="3.5" ry="2.5" fill="#576C71"/>
<path fill-rule="evenodd" clip-rule="evenodd" d="M81.0039 46.1289V51.1289H77.9355C76.4626 52.0656 74.5693 52.6289 72.5039 52.6289C70.4385 52.6289 68.5452 52.0656 67.0723 51.1289H64.0039V46.6289V46.1289V45.6289H64.0287C64.3626 42.2727 68.0295 39.6289 72.5039 39.6289C76.9783 39.6289 80.6453 42.2727 80.9791 45.6289H81.0039V46.1289Z" fill="#0C0D0E"/>
<ellipse cx="72.5039" cy="50.1289" rx="8.5" ry="6.5" fill="#16171A"/>
<ellipse cx="72.5039" cy="50.1289" rx="4.5" ry="3.5" fill="#455255"/>
<ellipse cx="72.5039" cy="49.1289" rx="3.5" ry="2.5" fill="#576C71"/>
<path d="M28 30.6289H11.7266V18.6289L18.1438 6.62891V18.6289H28V30.6289Z" fill="#B8A26A"/>
<g style="mix-blend-mode:screen" filter="url(#filter0_f_161_6769)">
<path d="M28 30.6289H11.7266V18.6289L18.1438 6.62891V18.6289H28V30.6289Z" fill="#DDBC66"/>
</g>
<path d="M13.5 45.6289V30.6289H28V41.1289H18L13.5 45.6289Z" fill="#272B30"/>
<path fill-rule="evenodd" clip-rule="evenodd" d="M89 40.6289H35V46.6289H62.5L67.5 41.6289H78.5L83.5 46.6289H89V40.6289Z" fill="#1B1D20"/>
<rect x="35" y="19.6289" width="54" height="21" fill="#272B30"/>
<path d="M67.5 42L62 47.5V46.5L67.5 41H78.5L84 46.5V47.5L78.5 42H67.5Z" fill="#0D1217"/>
<rect width="0.5" height="4" transform="matrix(-1 0 0 1 5 35.6289)" fill="white"/>
<rect width="0.5" height="4" transform="matrix(-1 0 0 1 5 25.6289)" fill="white"/>
<path d="M18 42L12.5 47.5V46.5L18 41H29L34.5 46.5V47.5L29 42H18Z" fill="#0D1217"/>
<path d="M20 12.6289H21C22.1046 12.6289 23 13.5243 23 14.6289H20V12.6289Z" fill="#1B1D20"/>
<path d="M20 5.62891H21C22.1046 5.62891 23 6.52434 23 7.62891H20V5.62891Z" fill="#1B1D20"/>
<path d="M44.9238 40.6289L37 25.6289H89V40.6289H44.9238Z" fill="#131516"/>
<rect x="37" y="5.62891" width="52" height="15" fill="#131516"/>
<rect width="50" height="5" transform="matrix(1 0 0 -1 38 25.6289)" fill="#1F2226"/>
<path d="M43 20.6289L38 5.62891V20.6289H43Z" fill="#1F2226"/>
<rect x="37.5" y="6.12891" width="51" height="19" stroke="#404A56"/>
<defs>
<filter id="filter0_f_161_6769" x="5.72656" y="0.628906" width="28.2734" height="36" filterUnits="userSpaceOnUse" color-interpolation-filters="sRGB">
<feFlood flood-opacity="0" result="BackgroundImageFix"/>
<feBlend mode="normal" in="SourceGraphic" in2="BackgroundImageFix" result="shape"/>
<feGaussianBlur stdDeviation="3" result="effect1_foregroundBlur_161_6769"/>
</filter>
<radialGradient id="paint0_radial_161_6769" cx="0" cy="0" r="1" gradientUnits="userSpaceOnUse" gradientTransform="translate(49.5 36.1289) rotate(90) scale(51 106.651)">
<stop offset="0.049745"/>
<stop offset="0.780137" stop-color="#020202" stop-opacity="0"/>
</radialGradient>
<radialGradient id="paint1_radial_161_6769" cx="0" cy="0" r="1" gradientUnits="userSpaceOnUse" gradientTransform="translate(22.5039 53.1289) rotate(90) scale(7 15.8629)">
<stop/>
<stop offset="1" stop-opacity="0"/>
</radialGradient>
<radialGradient id="paint2_radial_161_6769" cx="0" cy="0" r="1" gradientUnits="userSpaceOnUse" gradientTransform="translate(75.5039 53.6289) rotate(90) scale(8 18.1291)">
<stop/>
<stop offset="1" stop-opacity="0"/>
</radialGradient>
<radialGradient id="paint3_radial_161_6769" cx="0" cy="0" r="1" gradientUnits="userSpaceOnUse" gradientTransform="translate(42 41.125) rotate(90) scale(26.5039 95.0279)">
<stop/>
<stop offset="1" stop-opacity="0"/>
</radialGradient>
</defs>
</svg>
