<svg width="61" height="245" viewBox="0 0 61 245" fill="none" xmlns="http://www.w3.org/2000/svg">
<path d="M16.5432 235.081L3.30078 222.682L35.9339 0C41.1363 4.7942 52.2978 14.8785 55.3247 16.8623C59.1082 19.3421 61 21.8219 61 27.2773V211.275C61 215.243 57.2164 217.227 55.3247 217.723V245H26.4751L20.3268 236.073L16.5432 235.081Z" fill="url(#paint0_radial_2695_20736)"/>
<path d="M16.5432 235.081L3.30078 222.682L35.9339 0C41.1363 4.7942 52.2978 14.8785 55.3247 16.8623C59.1082 19.3421 61 21.8219 61 27.2773V211.275C61 215.243 57.2164 217.227 55.3247 217.723V245H26.4751L20.3268 236.073L16.5432 235.081Z" fill="url(#paint1_radial_2695_20736)"/>
<path d="M16.5432 235.081L3.30078 222.682L35.9339 0C41.1363 4.7942 52.2978 14.8785 55.3247 16.8623C59.1082 19.3421 61 21.8219 61 27.2773V211.275C61 215.243 57.2164 217.227 55.3247 217.723V245H26.4751L20.3268 236.073L16.5432 235.081Z" fill="url(#paint2_radial_2695_20736)"/>
<path d="M16.5432 235.081L3.30078 222.682L35.9339 0C41.1363 4.7942 52.2978 14.8785 55.3247 16.8623C59.1082 19.3421 61 21.8219 61 27.2773V211.275C61 215.243 57.2164 217.227 55.3247 217.723V245H26.4751L20.3268 236.073L16.5432 235.081Z" fill="url(#paint3_radial_2695_20736)"/>
<path d="M16.5432 235.081L3.30078 222.682L35.9339 0C41.1363 4.7942 52.2978 14.8785 55.3247 16.8623C59.1082 19.3421 61 21.8219 61 27.2773V211.275C61 215.243 57.2164 217.227 55.3247 217.723V245H26.4751L20.3268 236.073L16.5432 235.081Z" fill="url(#paint4_radial_2695_20736)"/>
<rect x="4.90808" y="203.34" width="32.1602" height="14.8785" fill="#1B1D20"/>
<path d="M3.96216 164.656H38.0142V193.421H3.96216V164.656Z" fill="#5D626A"/>
<rect x="4.90808" y="187.47" width="32.1602" height="15.8704" fill="#1B1D20"/>
<path d="M4 0H38V165H4V0Z" fill="#7F8C9E"/>
<rect x="5.00781" y="174.575" width="32.1602" height="12.8947" fill="#363D46"/>
<ellipse cx="8.21864" cy="183.006" rx="1.41883" ry="2.47976" fill="#0C0D0E"/>
<ellipse cx="33.7577" cy="183.006" rx="1.41883" ry="2.47976" fill="#0C0D0E"/>
<rect x="6.7998" y="182.51" width="2.83767" height="2.97571" rx="1.41883" fill="#EEEEEE"/>
<rect x="32.3389" y="182.51" width="2.83767" height="2.97571" rx="1.41883" fill="#EEEEEE"/>
<path d="M13.0155 208.515C12.8837 207.893 13.358 207.308 13.9938 207.308H29.4974C30.1331 207.308 30.6075 207.893 30.4757 208.515L29.0077 215.442C28.9098 215.904 28.5018 216.235 28.0295 216.235H15.4617C14.9893 216.235 14.5814 215.904 14.4834 215.442L13.0155 208.515Z" fill="#0C0D0E"/>
<g style="mix-blend-mode:screen" filter="url(#filter0_f_2695_20736)">
<rect x="6.7998" y="182.51" width="2.83767" height="2.97571" fill="white"/>
</g>
<g style="mix-blend-mode:screen" filter="url(#filter1_f_2695_20736)">
<rect x="32.3389" y="182.51" width="2.83767" height="2.97571" fill="white"/>
</g>
<path fill-rule="evenodd" clip-rule="evenodd" d="M22.2202 188.462H6.14014V202.349H22.2202H36.4086V188.462H22.2202Z" fill="#0C0D0E"/>
<rect x="6.13843" y="207.308" width="4.72944" height="4.95951" rx="2.36472" fill="#0C0D0E"/>
<rect x="31.6775" y="207.308" width="4.72944" height="4.95951" rx="2.36472" fill="#0C0D0E"/>
<rect x="6.13843" y="208.3" width="4.72944" height="4.95951" rx="2.36472" fill="#EEEEEE"/>
<rect x="31.6775" y="208.3" width="4.72944" height="4.95951" rx="2.36472" fill="#EEEEEE"/>
<g style="mix-blend-mode:screen" filter="url(#filter2_f_2695_20736)">
<rect x="6.13843" y="208.3" width="4.72944" height="4.95951" fill="white"/>
</g>
<g style="mix-blend-mode:screen" filter="url(#filter3_f_2695_20736)">
<rect x="31.6775" y="208.3" width="4.72944" height="4.95951" fill="white"/>
</g>
<path fill-rule="evenodd" clip-rule="evenodd" d="M5.19308 216.235V218.219H37.3533V216.235L38.2992 217.227V218.219V218.219V222.186H4.24719V218.219V218.219V217.227L5.19308 216.235Z" fill="#363D46"/>
<rect x="4.24658" y="219.211" width="34.052" height="3.96761" fill="#1B1D20"/>
<defs>
<filter id="filter0_f_2695_20736" x="0.799805" y="176.51" width="14.8376" height="14.9756" filterUnits="userSpaceOnUse" color-interpolation-filters="sRGB">
<feFlood flood-opacity="0" result="BackgroundImageFix"/>
<feBlend mode="normal" in="SourceGraphic" in2="BackgroundImageFix" result="shape"/>
<feGaussianBlur stdDeviation="3" result="effect1_foregroundBlur_2695_20736"/>
</filter>
<filter id="filter1_f_2695_20736" x="26.3389" y="176.51" width="14.8376" height="14.9756" filterUnits="userSpaceOnUse" color-interpolation-filters="sRGB">
<feFlood flood-opacity="0" result="BackgroundImageFix"/>
<feBlend mode="normal" in="SourceGraphic" in2="BackgroundImageFix" result="shape"/>
<feGaussianBlur stdDeviation="3" result="effect1_foregroundBlur_2695_20736"/>
</filter>
<filter id="filter2_f_2695_20736" x="0.138428" y="202.3" width="16.7295" height="16.96" filterUnits="userSpaceOnUse" color-interpolation-filters="sRGB">
<feFlood flood-opacity="0" result="BackgroundImageFix"/>
<feBlend mode="normal" in="SourceGraphic" in2="BackgroundImageFix" result="shape"/>
<feGaussianBlur stdDeviation="3" result="effect1_foregroundBlur_2695_20736"/>
</filter>
<filter id="filter3_f_2695_20736" x="25.6775" y="202.3" width="16.7295" height="16.96" filterUnits="userSpaceOnUse" color-interpolation-filters="sRGB">
<feFlood flood-opacity="0" result="BackgroundImageFix"/>
<feBlend mode="normal" in="SourceGraphic" in2="BackgroundImageFix" result="shape"/>
<feGaussianBlur stdDeviation="3" result="effect1_foregroundBlur_2695_20736"/>
</filter>
<radialGradient id="paint0_radial_2695_20736" cx="0" cy="0" r="1" gradientUnits="userSpaceOnUse" gradientTransform="translate(24.2988 125.673) scale(50.1321 234.07)">
<stop/>
<stop offset="0.810344" stop-color="#020202" stop-opacity="0"/>
</radialGradient>
<radialGradient id="paint1_radial_2695_20736" cx="0" cy="0" r="1" gradientUnits="userSpaceOnUse" gradientTransform="translate(18.435 220.202) rotate(90) scale(9.42308 33.7262)">
<stop/>
<stop offset="1" stop-opacity="0"/>
</radialGradient>
<radialGradient id="paint2_radial_2695_20736" cx="0" cy="0" r="1" gradientUnits="userSpaceOnUse" gradientTransform="translate(36.4069 198.877) scale(11.3507 32.9266)">
<stop/>
<stop offset="1" stop-opacity="0"/>
</radialGradient>
<radialGradient id="paint3_radial_2695_20736" cx="0" cy="0" r="1" gradientUnits="userSpaceOnUse" gradientTransform="translate(33.5692 152.257) scale(17.9719 69.333)">
<stop/>
<stop offset="1" stop-opacity="0"/>
</radialGradient>
<radialGradient id="paint4_radial_2695_20736" cx="0" cy="0" r="1" gradientUnits="userSpaceOnUse" gradientTransform="translate(32.3388 71.913) scale(22.2284 85.7539)">
<stop/>
<stop offset="1" stop-opacity="0"/>
</radialGradient>
</defs>
</svg>
