<svg width="239" height="75" viewBox="0 0 239 75" fill="none" xmlns="http://www.w3.org/2000/svg">
<path d="M16.3866 63.528L3.00073 45.3629L4.03041 43.3445L58.6034 36.2803L213.055 38.2986L216.144 19.6289C222.322 25.5158 235.193 38.1977 237.253 41.8307C239.827 46.372 238.797 59.9959 238.797 67.0601C238.797 72.7115 236.052 74.4607 234.679 74.6289L54.4847 73.6197L43.1582 51.4179H36.4653L48.8215 74.6289H32.8614L22.0498 64.5372L16.3866 63.528Z" fill="url(#paint0_radial_2695_18701)"/>
<path d="M16.3866 63.528L3.00073 45.3629L4.03041 43.3445L58.6034 36.2803L213.055 38.2986L216.144 19.6289C222.322 25.5158 235.193 38.1977 237.253 41.8307C239.827 46.372 238.797 59.9959 238.797 67.0601C238.797 72.7115 236.052 74.4607 234.679 74.6289L54.4847 73.6197L43.1582 51.4179H36.4653L48.8215 74.6289H32.8614L22.0498 64.5372L16.3866 63.528Z" fill="url(#paint1_radial_2695_18701)"/>
<path d="M16.3866 63.528L3.00073 45.3629L4.03041 43.3445L58.6034 36.2803L213.055 38.2986L216.144 19.6289C222.322 25.5158 235.193 38.1977 237.253 41.8307C239.827 46.372 238.797 59.9959 238.797 67.0601C238.797 72.7115 236.052 74.4607 234.679 74.6289L54.4847 73.6197L43.1582 51.4179H36.4653L48.8215 74.6289H32.8614L22.0498 64.5372L16.3866 63.528Z" fill="url(#paint2_radial_2695_18701)"/>
<path d="M16.3866 63.528L3.00073 45.3629L4.03041 43.3445L58.6034 36.2803L213.055 38.2986L216.144 19.6289C222.322 25.5158 235.193 38.1977 237.253 41.8307C239.827 46.372 238.797 59.9959 238.797 67.0601C238.797 72.7115 236.052 74.4607 234.679 74.6289L54.4847 73.6197L43.1582 51.4179H36.4653L48.8215 74.6289H32.8614L22.0498 64.5372L16.3866 63.528Z" fill="url(#paint3_radial_2695_18701)"/>
<path d="M16.3866 63.528L3.00073 45.3629L4.03041 43.3445L58.6034 36.2803L213.055 38.2986L216.144 19.6289C222.322 25.5158 235.193 38.1977 237.253 41.8307C239.827 46.372 238.797 59.9959 238.797 67.0601C238.797 72.7115 236.052 74.4607 234.679 74.6289L54.4847 73.6197L43.1582 51.4179H36.4653L48.8215 74.6289H32.8614L22.0498 64.5372L16.3866 63.528Z" fill="url(#paint4_radial_2695_18701)"/>
<path d="M16.3866 63.528L3.00073 45.3629L4.03041 43.3445L58.6034 36.2803L213.055 38.2986L216.144 19.6289C222.322 25.5158 235.193 38.1977 237.253 41.8307C239.827 46.372 238.797 59.9959 238.797 67.0601C238.797 72.7115 236.052 74.4607 234.679 74.6289L54.4847 73.6197L43.1582 51.4179H36.4653L48.8215 74.6289H32.8614L22.0498 64.5372L16.3866 63.528Z" fill="url(#paint5_radial_2695_18701)"/>
<path d="M16.3866 63.528L3.00073 45.3629L4.03041 43.3445L58.6034 36.2803L213.055 38.2986L216.144 19.6289C222.322 25.5158 235.193 38.1977 237.253 41.8307C239.827 46.372 238.797 59.9959 238.797 67.0601C238.797 72.7115 236.052 74.4607 234.679 74.6289L54.4847 73.6197L43.1582 51.4179H36.4653L48.8215 74.6289H32.8614L22.0498 64.5372L16.3866 63.528Z" fill="url(#paint6_radial_2695_18701)"/>
<path d="M16.3866 63.528L3.00073 45.3629L4.03041 43.3445L58.6034 36.2803L213.055 38.2986L216.144 19.6289C222.322 25.5158 235.193 38.1977 237.253 41.8307C239.827 46.372 238.797 59.9959 238.797 67.0601C238.797 72.7115 236.052 74.4607 234.679 74.6289L54.4847 73.6197L43.1582 51.4179H36.4653L48.8215 74.6289H32.8614L22.0498 64.5372L16.3866 63.528Z" fill="url(#paint7_radial_2695_18701)"/>
<path d="M16.3866 63.528L3.00073 45.3629L4.03041 43.3445L58.6034 36.2803L213.055 38.2986L216.144 19.6289C222.322 25.5158 235.193 38.1977 237.253 41.8307C239.827 46.372 238.797 59.9959 238.797 67.0601C238.797 72.7115 236.052 74.4607 234.679 74.6289L54.4847 73.6197L43.1582 51.4179H36.4653L48.8215 74.6289H32.8614L22.0498 64.5372L16.3866 63.528Z" fill="url(#paint8_radial_2695_18701)"/>
<path fill-rule="evenodd" clip-rule="evenodd" d="M28.0015 45.1289V50.1289H24.9331C23.4602 51.0656 21.5669 51.6289 19.5015 51.6289C17.4361 51.6289 15.5427 51.0656 14.0699 50.1289H11.0015V45.6289V45.1289V44.6289H11.0262C11.3601 41.2727 15.027 38.6289 19.5015 38.6289C23.9759 38.6289 27.6428 41.2727 27.9767 44.6289H28.0015V45.1289Z" fill="#0C0D0E"/>
<path d="M31.0007 18.6289H38.0007V40.6289H31.0007V18.6289Z" fill="#272B30"/>
<path d="M31.5015 1V13C31.5015 13 25.4067 13.0431 21.5015 13.6289C17.5962 14.2147 11.5015 16 11.5015 16V4C11.5015 4 17.5962 2.21469 21.5015 1.62891C25.4067 1.04312 31.5015 1 31.5015 1Z" fill="#363D46"/>
<path d="M5.00146 45.5V34.0001L5.03157 33.8685V25.6291L6.50146 19.1291L6.00146 29.6291L11.5015 16.0002C11.5015 16.0002 16.5015 14.3135 22.0015 13.6291C27.5015 12.9446 31.5015 13.1291 31.5015 13.1291V45.6294H30.5015L25.5015 40.5002H14.5015L9.50146 45.5002L5.00146 45.5Z" fill="#1B1D20"/>
<rect x="38.0007" y="11.6289" width="178" height="25" fill="#5D626A"/>
<rect x="38.0007" y="1.62891" width="178" height="10" fill="#7F8D9E"/>
<path d="M5.00146 42.5V35H3.50146V43H6.50146L8.00146 42.5H5.00146Z" fill="#363D46"/>
<path d="M8.00146 45.5V42.5L6.50146 43H3.50146V46H6.50146L8.00146 45.5Z" fill="#1B1D20"/>
<ellipse cx="19.5015" cy="49.1289" rx="8.5" ry="6.5" fill="#16171A"/>
<ellipse cx="19.5015" cy="49.1289" rx="4.5" ry="3.5" fill="#455255"/>
<ellipse cx="19.5015" cy="48.1289" rx="3.5" ry="2.5" fill="#576C71"/>
<path fill-rule="evenodd" clip-rule="evenodd" d="M93.0007 45.1289V50.1289H89.9323C88.4595 51.0656 86.5661 51.6289 84.5007 51.6289C82.4353 51.6289 80.542 51.0656 79.0691 50.1289H76.0007V45.6289V45.1289V44.6289H76.0255C76.3594 41.2727 80.0263 38.6289 84.5007 38.6289C88.9752 38.6289 92.6421 41.2727 92.976 44.6289H93.0007V45.1289Z" fill="#0C0D0E"/>
<ellipse cx="84.5007" cy="49.1289" rx="8.5" ry="6.5" fill="#16171A"/>
<ellipse cx="84.5007" cy="49.1289" rx="4.5" ry="3.5" fill="#455255"/>
<ellipse cx="84.5007" cy="48.1289" rx="3.5" ry="2.5" fill="#576C71"/>
<path fill-rule="evenodd" clip-rule="evenodd" d="M187.001 45.1289V50.1289H183.932C182.459 51.0656 180.566 51.6289 178.501 51.6289C176.435 51.6289 174.542 51.0656 173.069 50.1289H170.001V45.6289V45.1289V44.6289H170.025C170.359 41.2727 174.026 38.6289 178.501 38.6289C182.975 38.6289 186.642 41.2727 186.976 44.6289H187.001V45.1289Z" fill="#0C0D0E"/>
<ellipse cx="178.501" cy="49.1289" rx="8.5" ry="6.5" fill="#16171A"/>
<ellipse cx="178.501" cy="49.1289" rx="4.5" ry="3.5" fill="#455255"/>
<ellipse cx="178.501" cy="48.1289" rx="3.5" ry="2.5" fill="#576C71"/>
<path fill-rule="evenodd" clip-rule="evenodd" d="M74.0007 45.1289V50.1289H70.9323C69.4594 51.0656 67.5661 51.6289 65.5007 51.6289C63.4353 51.6289 61.542 51.0656 60.0691 50.1289H57.0007V45.6289V45.1289V44.6289H57.0254C57.3593 41.2727 61.0263 38.6289 65.5007 38.6289C69.9751 38.6289 73.642 41.2727 73.9759 44.6289H74.0007V45.1289Z" fill="#0C0D0E"/>
<ellipse cx="65.5007" cy="49.1289" rx="8.5" ry="6.5" fill="#16171A"/>
<ellipse cx="65.5007" cy="49.1289" rx="4.5" ry="3.5" fill="#455255"/>
<ellipse cx="65.5007" cy="48.1289" rx="3.5" ry="2.5" fill="#576C71"/>
<path fill-rule="evenodd" clip-rule="evenodd" d="M168.001 45.1289V50.1289H164.932C163.459 51.0656 161.566 51.6289 159.501 51.6289C157.435 51.6289 155.542 51.0656 154.069 50.1289H151.001V45.6289V45.1289V44.6289H151.025C151.359 41.2727 155.026 38.6289 159.501 38.6289C163.975 38.6289 167.642 41.2727 167.976 44.6289H168.001V45.1289Z" fill="#0C0D0E"/>
<ellipse cx="159.501" cy="49.1289" rx="8.5" ry="6.5" fill="#16171A"/>
<ellipse cx="159.501" cy="49.1289" rx="4.5" ry="3.5" fill="#455255"/>
<ellipse cx="159.501" cy="48.1289" rx="3.5" ry="2.5" fill="#576C71"/>
<path fill-rule="evenodd" clip-rule="evenodd" d="M112.001 45.1289V50.1289H108.932C107.459 51.0656 105.566 51.6289 103.501 51.6289C101.435 51.6289 99.542 51.0656 98.0691 50.1289H95.0007V45.6289V45.1289V44.6289H95.0255C95.3594 41.2727 99.0263 38.6289 103.501 38.6289C107.975 38.6289 111.642 41.2727 111.976 44.6289H112.001V45.1289Z" fill="#0C0D0E"/>
<ellipse cx="103.501" cy="49.1289" rx="8.5" ry="6.5" fill="#16171A"/>
<ellipse cx="103.501" cy="49.1289" rx="4.5" ry="3.5" fill="#455255"/>
<ellipse cx="103.501" cy="48.1289" rx="3.5" ry="2.5" fill="#576C71"/>
<path fill-rule="evenodd" clip-rule="evenodd" d="M206.001 45.1289V50.1289H202.932C201.459 51.0656 199.566 51.6289 197.501 51.6289C195.435 51.6289 193.542 51.0656 192.069 50.1289H189.001V45.6289V45.1289V44.6289H189.025C189.359 41.2727 193.026 38.6289 197.501 38.6289C201.975 38.6289 205.642 41.2727 205.976 44.6289H206.001V45.1289Z" fill="#0C0D0E"/>
<ellipse cx="197.501" cy="49.1289" rx="8.5" ry="6.5" fill="#16171A"/>
<ellipse cx="197.501" cy="49.1289" rx="4.5" ry="3.5" fill="#455255"/>
<ellipse cx="197.501" cy="48.1289" rx="3.5" ry="2.5" fill="#576C71"/>
<path d="M6.00146 29.6289L10.814 17.6289H22.5015V29.6289H6.00146Z" fill="#B8A26A"/>
<path d="M10.0015 44.6289V29.6289H22.5015V40.1289H14.5015L10.0015 44.6289Z" fill="#232629"/>
<path fill-rule="evenodd" clip-rule="evenodd" d="M123.001 36.6289H31.0007V45.6289H51.5007L56.5007 40.6289H111.501L116.501 45.6289H123.001V36.6289Z" fill="#1B1D20"/>
<path fill-rule="evenodd" clip-rule="evenodd" d="M216.001 36.6289H118.001V45.6289H145.501L150.501 40.6289H206.501L211.501 45.6289H216.001V36.6289Z" fill="#1B1D20"/>
<path d="M56.5007 41L51.0007 46.5V45.5L56.5007 40H111.501L117.001 45.5V46.5L111.501 41H56.5007Z" fill="#0D1217"/>
<path d="M150.501 41L145.001 46.5V45.5L150.501 40H206.501L212.001 45.5V46.5L206.501 41H150.501Z" fill="#0D1217"/>
<rect width="0.5" height="4" transform="matrix(-1 0 0 1 5.00073 34.6289)" fill="white"/>
<rect width="0.5" height="4" transform="matrix(-1 0 0 1 5.00073 25.6289)" fill="white"/>
<path d="M14.5015 41L9.00146 46.5V45.5L14.5015 40H25.5015L31.0015 45.5V46.5L25.5015 41H14.5015Z" fill="#0D1217"/>
<path d="M14.0007 11.1289L15.0279 10.9577C16.0606 10.7856 17.0007 11.582 17.0007 12.6289L14.0007 13.1289V11.1289Z" fill="#1B1D20"/>
<path d="M14.0007 4.12891L15.0279 3.9577C16.0606 3.78559 17.0007 4.58196 17.0007 5.62891L14.0007 6.12891V4.12891Z" fill="#1B1D20"/>
<path d="M11.0015 6.12891V17.6289L6.00146 29.6289L6.50146 19.1289L11.0015 6.12891Z" fill="#B8A26A"/>
<path d="M11.0007 6.12891V17.6289L11.5007 16.1289V4.12891L11.0007 6.12891Z" fill="#1B1D20"/>
<g style="mix-blend-mode:screen" filter="url(#filter0_f_2695_18701)">
<path d="M22.5007 29.6289H6.00073L6.50073 19.1289L11.0007 6.12891V17.6289H22.5007V29.6289Z" fill="#E1BB56"/>
</g>
<rect width="178" height="6" transform="matrix(1 0 0 -1 38.0007 36.6289)" fill="#4C525E"/>
<path d="M30.5007 16.6289V14.6289C29.0007 14.6289 26.0007 14.8289 26.0007 15.6289C26.0007 16.4289 29.0007 16.6289 30.5007 16.6289Z" fill="#101112"/>
<path d="M51.0007 44.1289L51.5007 43.6289H32.0007L33.0007 44.1289H51.0007Z" fill="#111315"/>
<path d="M143.501 44.1289L144.001 43.6289H120.501L121.501 44.1289H143.501Z" fill="#111315"/>
<defs>
<filter id="filter0_f_2695_18701" x="0.000732422" y="0.128906" width="28.5" height="35.5" filterUnits="userSpaceOnUse" color-interpolation-filters="sRGB">
<feFlood flood-opacity="0" result="BackgroundImageFix"/>
<feBlend mode="normal" in="SourceGraphic" in2="BackgroundImageFix" result="shape"/>
<feGaussianBlur stdDeviation="3" result="effect1_foregroundBlur_2695_18701"/>
</filter>
<radialGradient id="paint0_radial_2695_18701" cx="0" cy="0" r="1" gradientUnits="userSpaceOnUse" gradientTransform="translate(70.4447 35.7757) rotate(90) scale(43.3945 343.868)">
<stop offset="0.10504"/>
<stop offset="0.810344" stop-color="#020202" stop-opacity="0"/>
</radialGradient>
<radialGradient id="paint1_radial_2695_18701" cx="0" cy="0" r="1" gradientUnits="userSpaceOnUse" gradientTransform="translate(23.0795 51.9225) rotate(90) scale(7.06422 16.3338)">
<stop/>
<stop offset="1" stop-opacity="0"/>
</radialGradient>
<radialGradient id="paint2_radial_2695_18701" cx="0" cy="0" r="1" gradientUnits="userSpaceOnUse" gradientTransform="translate(86.9196 51.4179) rotate(90) scale(10.5963 24.5006)">
<stop/>
<stop offset="1" stop-opacity="0"/>
</radialGradient>
<radialGradient id="paint3_radial_2695_18701" cx="0" cy="0" r="1" gradientUnits="userSpaceOnUse" gradientTransform="translate(106.484 51.9225) rotate(90) scale(9.08257 21.0005)">
<stop/>
<stop offset="1" stop-opacity="0"/>
</radialGradient>
<radialGradient id="paint4_radial_2695_18701" cx="0" cy="0" r="1" gradientUnits="userSpaceOnUse" gradientTransform="translate(67.8706 51.9225) rotate(90) scale(8.57798 19.8338)">
<stop/>
<stop offset="1" stop-opacity="0"/>
</radialGradient>
<radialGradient id="paint5_radial_2695_18701" cx="0" cy="0" r="1" gradientUnits="userSpaceOnUse" gradientTransform="translate(180.106 49.3995) rotate(90) scale(11.1009 25.6673)">
<stop/>
<stop offset="1" stop-opacity="0"/>
</radialGradient>
<radialGradient id="paint6_radial_2695_18701" cx="0" cy="0" r="1" gradientUnits="userSpaceOnUse" gradientTransform="translate(160.027 50.4087) rotate(90) scale(10.0917 23.3339)">
<stop/>
<stop offset="1" stop-opacity="0"/>
</radialGradient>
<radialGradient id="paint7_radial_2695_18701" cx="0" cy="0" r="1" gradientUnits="userSpaceOnUse" gradientTransform="translate(199.67 50.9133) rotate(90) scale(9.58715 22.1672)">
<stop/>
<stop offset="1" stop-opacity="0"/>
</radialGradient>
<radialGradient id="paint8_radial_2695_18701" cx="0" cy="0" r="1" gradientUnits="userSpaceOnUse" gradientTransform="translate(65.8112 36.2803) rotate(90) scale(25.7339 114.98)">
<stop/>
<stop offset="1" stop-opacity="0"/>
</radialGradient>
</defs>
</svg>
