<svg width="142" height="75" viewBox="0 0 142 75" fill="none" xmlns="http://www.w3.org/2000/svg">
<path d="M13.002 64L0.00201416 46L1.00201 44L59.002 38H99.502L119.502 45.5V20.5C125.502 26.3333 138.002 38.9 140.002 42.5C142.502 47 141.502 60.5 141.502 67.5C141.502 73.1 138.835 74.8333 137.502 75L50.002 74L39.002 52H32.502L44.502 75H29.002L18.502 65L13.002 64Z" fill="url(#paint0_radial_2695_18781)"/>
<path d="M13.002 64L0.00201416 46L1.00201 44L59.002 38H99.502L119.502 45.5V20.5C125.502 26.3333 138.002 38.9 140.002 42.5C142.502 47 141.502 60.5 141.502 67.5C141.502 73.1 138.835 74.8333 137.502 75L50.002 74L39.002 52H32.502L44.502 75H29.002L18.502 65L13.002 64Z" fill="url(#paint1_radial_2695_18781)"/>
<path d="M13.002 64L0.00201416 46L1.00201 44L59.002 38H99.502L119.502 45.5V20.5C125.502 26.3333 138.002 38.9 140.002 42.5C142.502 47 141.502 60.5 141.502 67.5C141.502 73.1 138.835 74.8333 137.502 75L50.002 74L39.002 52H32.502L44.502 75H29.002L18.502 65L13.002 64Z" fill="url(#paint2_radial_2695_18781)"/>
<path d="M13.002 64L0.00201416 46L1.00201 44L59.002 38H99.502L119.502 45.5V20.5C125.502 26.3333 138.002 38.9 140.002 42.5C142.502 47 141.502 60.5 141.502 67.5C141.502 73.1 138.835 74.8333 137.502 75L50.002 74L39.002 52H32.502L44.502 75H29.002L18.502 65L13.002 64Z" fill="url(#paint3_radial_2695_18781)"/>
<path d="M13.002 64L0.00201416 46L1.00201 44L59.002 38H99.502L119.502 45.5V20.5C125.502 26.3333 138.002 38.9 140.002 42.5C142.502 47 141.502 60.5 141.502 67.5C141.502 73.1 138.835 74.8333 137.502 75L50.002 74L39.002 52H32.502L44.502 75H29.002L18.502 65L13.002 64Z" fill="url(#paint4_radial_2695_18781)"/>
<path fill-rule="evenodd" clip-rule="evenodd" d="M29.0001 45.5V50.5H25.9317C24.4588 51.4367 22.5654 52 20.5001 52C18.4347 52 16.5413 51.4367 15.0685 50.5H12.0001V46V45.5V45H12.0248C12.3587 41.6438 16.0256 39 20.5001 39C24.9745 39 28.6414 41.6438 28.9753 45H29.0001V45.5Z" fill="#0C0D0E"/>
<path d="M2.00006 45.8711V34.3711L8.00006 31.3711L16.0001 16.3711H32.0001V46.0004H31.0001L26.0001 40.8711H15.0001L10.0001 45.8711H2.00006Z" fill="#1B1D20"/>
<path d="M32.0001 4.37109V16.3711H16.0001V4.37109H32.0001Z" fill="#363D46"/>
<path d="M16.0001 4.37109V16.3711L8.00006 31.3711V19.3711L16.0001 4.37109Z" fill="#515862"/>
<path d="M8.00006 19.3711V31.3711L2.00006 34.3711V22.3711L8.00006 19.3711Z" fill="#363D46"/>
<path d="M2.00006 42.8711V35.3711H0.500061V43.3711H3.50006L5.00006 42.8711H2.00006Z" fill="#363D46"/>
<path d="M5.00006 45.8711V42.8711L3.50006 43.3711H0.500061V46.3711H3.50006L5.00006 45.8711Z" fill="#1B1D20"/>
<ellipse cx="20.5001" cy="49.5" rx="8.5" ry="6.5" fill="#16171A"/>
<ellipse cx="20.5001" cy="49.5" rx="4.5" ry="3.5" fill="#455255"/>
<ellipse cx="20.5001" cy="48.5" rx="3.5" ry="2.5" fill="#576C71"/>
<path fill-rule="evenodd" clip-rule="evenodd" d="M100 45.5V50.5H96.9316C95.4587 51.4367 93.5654 52 91.5 52C89.4346 52 87.5413 51.4367 86.0684 50.5H83V46V45.5V45H83.0248C83.3586 41.6438 87.0256 39 91.5 39C95.9744 39 99.6414 41.6438 99.9752 45H100V45.5Z" fill="#0C0D0E"/>
<ellipse cx="91.5" cy="49.5" rx="8.5" ry="6.5" fill="#16171A"/>
<ellipse cx="91.5" cy="49.5" rx="4.5" ry="3.5" fill="#455255"/>
<ellipse cx="91.5" cy="48.5" rx="3.5" ry="2.5" fill="#576C71"/>
<path fill-rule="evenodd" clip-rule="evenodd" d="M81.0039 45.5V50.5H77.9355C76.4626 51.4367 74.5693 52 72.5039 52C70.4385 52 68.5452 51.4367 67.0723 50.5H64.0039V46V45.5V45H64.0287C64.3626 41.6438 68.0295 39 72.5039 39C76.9783 39 80.6453 41.6438 80.9791 45H81.0039V45.5Z" fill="#0C0D0E"/>
<ellipse cx="72.5039" cy="49.5" rx="8.5" ry="6.5" fill="#16171A"/>
<ellipse cx="72.5039" cy="49.5" rx="4.5" ry="3.5" fill="#455255"/>
<ellipse cx="72.5039" cy="48.5" rx="3.5" ry="2.5" fill="#576C71"/>
<path d="M25.0001 30H8.72662V18L15.1439 6V18H25.0001V30Z" fill="#B8A26A"/>
<g style="mix-blend-mode:screen" filter="url(#filter0_f_2695_18781)">
<path d="M25.0001 30H8.72662V18L15.1439 6V18H25.0001V30Z" fill="#DDBC66"/>
</g>
<path d="M10.5001 45V30H25.0001V40.5H15.0001L10.5001 45Z" fill="#272B30"/>
<path fill-rule="evenodd" clip-rule="evenodd" d="M67.4999 41H32V46H62.4999L67.4999 41ZM96.4999 41L101.5 46H120V41H96.4999Z" fill="#1B1D20"/>
<path fill-rule="evenodd" clip-rule="evenodd" d="M120.004 35H35.0039V42H66.6125L67.6375 41H95.9125L96.9375 42H120.004V35Z" fill="#1B1D20"/>
<rect x="32.0039" y="19" width="3" height="22" fill="#272B30"/>
<rect x="35.0039" y="12" width="85" height="23" fill="#0F1012"/>
<rect x="35.0039" width="85" height="12" fill="#1B1D20"/>
<path d="M67.5 41.3711L62 46.8711V45.8711L67.5 40.3711H96.5L102 45.8711V46.8711L96.5 41.3711H67.5Z" fill="#0D1217"/>
<rect width="0.5" height="4" transform="matrix(-1 0 0 1 2.00006 35)" fill="white"/>
<rect width="0.5" height="4" transform="matrix(-1 0 0 1 2.00006 25)" fill="white"/>
<path d="M15.0001 41.3711L9.50006 46.8711V45.8711L15.0001 40.3711H26.0001L31.5001 45.8711V46.8711L26.0001 41.3711H15.0001Z" fill="#0D1217"/>
<path d="M3.50006 29.5V23L3.00006 24.5V30.5L7.00006 29L3.50006 29.5Z" fill="#1B1D20"/>
<defs>
<filter id="filter0_f_2695_18781" x="2.72662" y="0" width="28.2734" height="36" filterUnits="userSpaceOnUse" color-interpolation-filters="sRGB">
<feFlood flood-opacity="0" result="BackgroundImageFix"/>
<feBlend mode="normal" in="SourceGraphic" in2="BackgroundImageFix" result="shape"/>
<feGaussianBlur stdDeviation="3" result="effect1_foregroundBlur_2695_18781"/>
</filter>
<radialGradient id="paint0_radial_2695_18781" cx="0" cy="0" r="1" gradientUnits="userSpaceOnUse" gradientTransform="translate(65.502 36.5) rotate(91.1935) scale(48.0104 146.093)">
<stop offset="0.049745"/>
<stop offset="0.780137" stop-color="#020202" stop-opacity="0"/>
</radialGradient>
<radialGradient id="paint1_radial_2695_18781" cx="0" cy="0" r="1" gradientUnits="userSpaceOnUse" gradientTransform="translate(19.502 52.5) rotate(90) scale(7 15.8629)">
<stop/>
<stop offset="1" stop-opacity="0"/>
</radialGradient>
<radialGradient id="paint2_radial_2695_18781" cx="0" cy="0" r="1" gradientUnits="userSpaceOnUse" gradientTransform="translate(90.502 52.5) rotate(90) scale(8.5 19.2621)">
<stop/>
<stop offset="1" stop-opacity="0"/>
</radialGradient>
<radialGradient id="paint3_radial_2695_18781" cx="0" cy="0" r="1" gradientUnits="userSpaceOnUse" gradientTransform="translate(72.502 53) rotate(90) scale(8 18.1291)">
<stop/>
<stop offset="1" stop-opacity="0"/>
</radialGradient>
<radialGradient id="paint4_radial_2695_18781" cx="0" cy="0" r="1" gradientUnits="userSpaceOnUse" gradientTransform="translate(61.002 37) rotate(90) scale(25.5 111.666)">
<stop/>
<stop offset="1" stop-opacity="0"/>
</radialGradient>
</defs>
</svg>
