<svg width="241" height="74" viewBox="0 0 241 74" fill="none" xmlns="http://www.w3.org/2000/svg">
<path d="M18.3866 62.528L5.00073 44.3629L6.03041 42.3445L60.6034 35.2803L215.055 37.2986L218.144 18.6289C224.322 24.5158 237.193 37.1977 239.253 40.8307C241.827 45.372 240.797 58.9959 240.797 66.0601C240.797 71.7115 238.052 73.4607 236.679 73.6289L56.4847 72.6197L45.1582 50.4179H38.4653L50.8215 73.6289H34.8614L24.0498 63.5372L18.3866 62.528Z" fill="url(#paint0_radial_2695_20766)"/>
<path d="M18.3866 62.528L5.00073 44.3629L6.03041 42.3445L60.6034 35.2803L215.055 37.2986L218.144 18.6289C224.322 24.5158 237.193 37.1977 239.253 40.8307C241.827 45.372 240.797 58.9959 240.797 66.0601C240.797 71.7115 238.052 73.4607 236.679 73.6289L56.4847 72.6197L45.1582 50.4179H38.4653L50.8215 73.6289H34.8614L24.0498 63.5372L18.3866 62.528Z" fill="url(#paint1_radial_2695_20766)"/>
<path d="M18.3866 62.528L5.00073 44.3629L6.03041 42.3445L60.6034 35.2803L215.055 37.2986L218.144 18.6289C224.322 24.5158 237.193 37.1977 239.253 40.8307C241.827 45.372 240.797 58.9959 240.797 66.0601C240.797 71.7115 238.052 73.4607 236.679 73.6289L56.4847 72.6197L45.1582 50.4179H38.4653L50.8215 73.6289H34.8614L24.0498 63.5372L18.3866 62.528Z" fill="url(#paint2_radial_2695_20766)"/>
<path d="M18.3866 62.528L5.00073 44.3629L6.03041 42.3445L60.6034 35.2803L215.055 37.2986L218.144 18.6289C224.322 24.5158 237.193 37.1977 239.253 40.8307C241.827 45.372 240.797 58.9959 240.797 66.0601C240.797 71.7115 238.052 73.4607 236.679 73.6289L56.4847 72.6197L45.1582 50.4179H38.4653L50.8215 73.6289H34.8614L24.0498 63.5372L18.3866 62.528Z" fill="url(#paint3_radial_2695_20766)"/>
<path d="M18.3866 62.528L5.00073 44.3629L6.03041 42.3445L60.6034 35.2803L215.055 37.2986L218.144 18.6289C224.322 24.5158 237.193 37.1977 239.253 40.8307C241.827 45.372 240.797 58.9959 240.797 66.0601C240.797 71.7115 238.052 73.4607 236.679 73.6289L56.4847 72.6197L45.1582 50.4179H38.4653L50.8215 73.6289H34.8614L24.0498 63.5372L18.3866 62.528Z" fill="url(#paint4_radial_2695_20766)"/>
<path d="M18.3866 62.528L5.00073 44.3629L6.03041 42.3445L60.6034 35.2803L215.055 37.2986L218.144 18.6289C224.322 24.5158 237.193 37.1977 239.253 40.8307C241.827 45.372 240.797 58.9959 240.797 66.0601C240.797 71.7115 238.052 73.4607 236.679 73.6289L56.4847 72.6197L45.1582 50.4179H38.4653L50.8215 73.6289H34.8614L24.0498 63.5372L18.3866 62.528Z" fill="url(#paint5_radial_2695_20766)"/>
<path d="M18.3866 62.528L5.00073 44.3629L6.03041 42.3445L60.6034 35.2803L215.055 37.2986L218.144 18.6289C224.322 24.5158 237.193 37.1977 239.253 40.8307C241.827 45.372 240.797 58.9959 240.797 66.0601C240.797 71.7115 238.052 73.4607 236.679 73.6289L56.4847 72.6197L45.1582 50.4179H38.4653L50.8215 73.6289H34.8614L24.0498 63.5372L18.3866 62.528Z" fill="url(#paint6_radial_2695_20766)"/>
<path d="M18.3866 62.528L5.00073 44.3629L6.03041 42.3445L60.6034 35.2803L215.055 37.2986L218.144 18.6289C224.322 24.5158 237.193 37.1977 239.253 40.8307C241.827 45.372 240.797 58.9959 240.797 66.0601C240.797 71.7115 238.052 73.4607 236.679 73.6289L56.4847 72.6197L45.1582 50.4179H38.4653L50.8215 73.6289H34.8614L24.0498 63.5372L18.3866 62.528Z" fill="url(#paint7_radial_2695_20766)"/>
<path d="M18.3866 62.528L5.00073 44.3629L6.03041 42.3445L60.6034 35.2803L215.055 37.2986L218.144 18.6289C224.322 24.5158 237.193 37.1977 239.253 40.8307C241.827 45.372 240.797 58.9959 240.797 66.0601C240.797 71.7115 238.052 73.4607 236.679 73.6289L56.4847 72.6197L45.1582 50.4179H38.4653L50.8215 73.6289H34.8614L24.0498 63.5372L18.3866 62.528Z" fill="url(#paint8_radial_2695_20766)"/>
<path fill-rule="evenodd" clip-rule="evenodd" d="M30.0015 44.1289V49.1289H26.9331C25.4602 50.0656 23.5669 50.6289 21.5015 50.6289C19.4361 50.6289 17.5427 50.0656 16.0699 49.1289H13.0015V44.6289V44.1289V43.6289H13.0262C13.3601 40.2727 17.027 37.6289 21.5015 37.6289C25.9759 37.6289 29.6428 40.2727 29.9767 43.6289H30.0015V44.1289Z" fill="#0C0D0E"/>
<path d="M33.0007 17.6289H40.0007V39.6289H33.0007V17.6289Z" fill="#272B30"/>
<path d="M33.5015 0V12C33.5015 12 27.4067 12.0431 23.5015 12.6289C19.5962 13.2147 13.5015 15 13.5015 15V3C13.5015 3 19.5962 1.21469 23.5015 0.628906C27.4067 0.0431198 33.5015 0 33.5015 0Z" fill="#363D46"/>
<path d="M7.00146 44.5V33.0001L7.03157 32.8685V24.6291L8.50146 18.1291L8.00146 28.6291L13.5015 15.0002C13.5015 15.0002 18.5015 13.3135 24.0015 12.6291C29.5015 11.9446 33.5015 12.1291 33.5015 12.1291V44.6294H32.5015L27.5015 39.5002H16.5015L11.5015 44.5002L7.00146 44.5Z" fill="#1B1D20"/>
<rect x="40.0007" y="10.6289" width="178" height="25" fill="#5D626A"/>
<rect x="40.0007" y="0.628906" width="178" height="10" fill="#7F8D9E"/>
<path d="M7.00146 41.5V34H5.50146V42H8.50146L10.0015 41.5H7.00146Z" fill="#363D46"/>
<path d="M10.0015 44.5V41.5L8.50146 42H5.50146V45H8.50146L10.0015 44.5Z" fill="#1B1D20"/>
<ellipse cx="21.5015" cy="48.1289" rx="8.5" ry="6.5" fill="#16171A"/>
<ellipse cx="21.5015" cy="48.1289" rx="4.5" ry="3.5" fill="#455255"/>
<ellipse cx="21.5015" cy="47.1289" rx="3.5" ry="2.5" fill="#576C71"/>
<path fill-rule="evenodd" clip-rule="evenodd" d="M95.0007 44.1289V49.1289H91.9323C90.4595 50.0656 88.5661 50.6289 86.5007 50.6289C84.4353 50.6289 82.542 50.0656 81.0691 49.1289H78.0007V44.6289V44.1289V43.6289H78.0255C78.3594 40.2727 82.0263 37.6289 86.5007 37.6289C90.9752 37.6289 94.6421 40.2727 94.976 43.6289H95.0007V44.1289Z" fill="#0C0D0E"/>
<ellipse cx="86.5007" cy="48.1289" rx="8.5" ry="6.5" fill="#16171A"/>
<ellipse cx="86.5007" cy="48.1289" rx="4.5" ry="3.5" fill="#455255"/>
<ellipse cx="86.5007" cy="47.1289" rx="3.5" ry="2.5" fill="#576C71"/>
<path fill-rule="evenodd" clip-rule="evenodd" d="M189.001 44.1289V49.1289H185.932C184.459 50.0656 182.566 50.6289 180.501 50.6289C178.435 50.6289 176.542 50.0656 175.069 49.1289H172.001V44.6289V44.1289V43.6289H172.026C172.359 40.2727 176.026 37.6289 180.501 37.6289C184.975 37.6289 188.642 40.2727 188.976 43.6289H189.001V44.1289Z" fill="#0C0D0E"/>
<ellipse cx="180.501" cy="48.1289" rx="8.5" ry="6.5" fill="#16171A"/>
<ellipse cx="180.501" cy="48.1289" rx="4.5" ry="3.5" fill="#455255"/>
<ellipse cx="180.501" cy="47.1289" rx="3.5" ry="2.5" fill="#576C71"/>
<path fill-rule="evenodd" clip-rule="evenodd" d="M76.0007 44.1289V49.1289H72.9323C71.4595 50.0656 69.5661 50.6289 67.5007 50.6289C65.4353 50.6289 63.542 50.0656 62.0691 49.1289H59.0007V44.6289V44.1289V43.6289H59.0255C59.3594 40.2727 63.0263 37.6289 67.5007 37.6289C71.9752 37.6289 75.6421 40.2727 75.976 43.6289H76.0007V44.1289Z" fill="#0C0D0E"/>
<ellipse cx="67.5007" cy="48.1289" rx="8.5" ry="6.5" fill="#16171A"/>
<ellipse cx="67.5007" cy="48.1289" rx="4.5" ry="3.5" fill="#455255"/>
<ellipse cx="67.5007" cy="47.1289" rx="3.5" ry="2.5" fill="#576C71"/>
<path fill-rule="evenodd" clip-rule="evenodd" d="M170.001 44.1289V49.1289H166.932C165.459 50.0656 163.566 50.6289 161.501 50.6289C159.435 50.6289 157.542 50.0656 156.069 49.1289H153.001V44.6289V44.1289V43.6289H153.026C153.359 40.2727 157.026 37.6289 161.501 37.6289C165.975 37.6289 169.642 40.2727 169.976 43.6289H170.001V44.1289Z" fill="#0C0D0E"/>
<ellipse cx="161.501" cy="48.1289" rx="8.5" ry="6.5" fill="#16171A"/>
<ellipse cx="161.501" cy="48.1289" rx="4.5" ry="3.5" fill="#455255"/>
<ellipse cx="161.501" cy="47.1289" rx="3.5" ry="2.5" fill="#576C71"/>
<path fill-rule="evenodd" clip-rule="evenodd" d="M114.001 44.1289V49.1289H110.932C109.459 50.0656 107.566 50.6289 105.501 50.6289C103.435 50.6289 101.542 50.0656 100.069 49.1289H97.0007V44.6289V44.1289V43.6289H97.0255C97.3594 40.2727 101.026 37.6289 105.501 37.6289C109.975 37.6289 113.642 40.2727 113.976 43.6289H114.001V44.1289Z" fill="#0C0D0E"/>
<ellipse cx="105.501" cy="48.1289" rx="8.5" ry="6.5" fill="#16171A"/>
<ellipse cx="105.501" cy="48.1289" rx="4.5" ry="3.5" fill="#455255"/>
<ellipse cx="105.501" cy="47.1289" rx="3.5" ry="2.5" fill="#576C71"/>
<path fill-rule="evenodd" clip-rule="evenodd" d="M208.001 44.1289V49.1289H204.932C203.459 50.0656 201.566 50.6289 199.501 50.6289C197.435 50.6289 195.542 50.0656 194.069 49.1289H191.001V44.6289V44.1289V43.6289H191.026C191.359 40.2727 195.026 37.6289 199.501 37.6289C203.975 37.6289 207.642 40.2727 207.976 43.6289H208.001V44.1289Z" fill="#0C0D0E"/>
<ellipse cx="199.501" cy="48.1289" rx="8.5" ry="6.5" fill="#16171A"/>
<ellipse cx="199.501" cy="48.1289" rx="4.5" ry="3.5" fill="#455255"/>
<ellipse cx="199.501" cy="47.1289" rx="3.5" ry="2.5" fill="#576C71"/>
<path d="M8.00146 28.6289L12.814 16.6289H24.5015V28.6289H8.00146Z" fill="#0C0D0E"/>
<path d="M12.0015 43.6289V28.6289H24.5015V39.1289H16.5015L12.0015 43.6289Z" fill="#232629"/>
<path fill-rule="evenodd" clip-rule="evenodd" d="M125.001 35.6289H33.0007V44.6289H53.5007L58.5007 39.6289H113.501L118.501 44.6289H125.001V35.6289Z" fill="#1B1D20"/>
<path fill-rule="evenodd" clip-rule="evenodd" d="M218.001 35.6289H120.001V44.6289H147.501L152.501 39.6289H208.501L213.501 44.6289H218.001V35.6289Z" fill="#1B1D20"/>
<path d="M58.5007 40L53.0007 45.5V44.5L58.5007 39H113.501L119.001 44.5V45.5L113.501 40H58.5007Z" fill="#0D1217"/>
<path d="M152.501 40L147.001 45.5V44.5L152.501 39H208.501L214.001 44.5V45.5L208.501 40H152.501Z" fill="#0D1217"/>
<rect width="0.5" height="4" transform="matrix(-1 0 0 1 7.00073 33.6289)" fill="white"/>
<rect width="0.5" height="4" transform="matrix(-1 0 0 1 7.00073 24.6289)" fill="white"/>
<path d="M16.5015 40L11.0015 45.5V44.5L16.5015 39H27.5015L33.0015 44.5V45.5L27.5015 40H16.5015Z" fill="#0D1217"/>
<path d="M16.0007 10.1289L17.0279 9.9577C18.0606 9.78559 19.0007 10.582 19.0007 11.6289L16.0007 12.1289V10.1289Z" fill="#1B1D20"/>
<path d="M16.0007 3.12891L17.0279 2.9577C18.0606 2.78559 19.0007 3.58196 19.0007 4.62891L16.0007 5.12891V3.12891Z" fill="#1B1D20"/>
<path d="M13.0015 5.12891V16.6289L8.00146 28.6289L8.50146 18.1289L13.0015 5.12891Z" fill="#0C0D0E"/>
<path d="M13.0007 5.12891V16.6289L13.5007 15.1289V3.12891L13.0007 5.12891Z" fill="#1B1D20"/>
<rect width="178" height="6" transform="matrix(1 0 0 -1 40.0007 35.6289)" fill="#4C525E"/>
<path d="M32.5007 15.6289V13.6289C31.0007 13.6289 28.0007 13.8289 28.0007 14.6289C28.0007 15.4289 31.0007 15.6289 32.5007 15.6289Z" fill="#101112"/>
<path d="M53.0007 43.1289L53.5007 42.6289H34.0007L35.0007 43.1289H53.0007Z" fill="#111315"/>
<path d="M145.501 43.1289L146.001 42.6289H122.501L123.501 43.1289H145.501Z" fill="#111315"/>
<defs>
<radialGradient id="paint0_radial_2695_20766" cx="0" cy="0" r="1" gradientUnits="userSpaceOnUse" gradientTransform="translate(72.4447 34.7757) rotate(90) scale(43.3945 343.868)">
<stop offset="0.10504"/>
<stop offset="0.810344" stop-color="#020202" stop-opacity="0"/>
</radialGradient>
<radialGradient id="paint1_radial_2695_20766" cx="0" cy="0" r="1" gradientUnits="userSpaceOnUse" gradientTransform="translate(25.0795 50.9225) rotate(90) scale(7.06422 16.3338)">
<stop/>
<stop offset="1" stop-opacity="0"/>
</radialGradient>
<radialGradient id="paint2_radial_2695_20766" cx="0" cy="0" r="1" gradientUnits="userSpaceOnUse" gradientTransform="translate(88.9196 50.4179) rotate(90) scale(10.5963 24.5006)">
<stop/>
<stop offset="1" stop-opacity="0"/>
</radialGradient>
<radialGradient id="paint3_radial_2695_20766" cx="0" cy="0" r="1" gradientUnits="userSpaceOnUse" gradientTransform="translate(108.484 50.9225) rotate(90) scale(9.08257 21.0005)">
<stop/>
<stop offset="1" stop-opacity="0"/>
</radialGradient>
<radialGradient id="paint4_radial_2695_20766" cx="0" cy="0" r="1" gradientUnits="userSpaceOnUse" gradientTransform="translate(69.8706 50.9225) rotate(90) scale(8.57798 19.8338)">
<stop/>
<stop offset="1" stop-opacity="0"/>
</radialGradient>
<radialGradient id="paint5_radial_2695_20766" cx="0" cy="0" r="1" gradientUnits="userSpaceOnUse" gradientTransform="translate(182.106 48.3995) rotate(90) scale(11.1009 25.6673)">
<stop/>
<stop offset="1" stop-opacity="0"/>
</radialGradient>
<radialGradient id="paint6_radial_2695_20766" cx="0" cy="0" r="1" gradientUnits="userSpaceOnUse" gradientTransform="translate(162.027 49.4087) rotate(90) scale(10.0917 23.3339)">
<stop/>
<stop offset="1" stop-opacity="0"/>
</radialGradient>
<radialGradient id="paint7_radial_2695_20766" cx="0" cy="0" r="1" gradientUnits="userSpaceOnUse" gradientTransform="translate(201.67 49.9133) rotate(90) scale(9.58715 22.1672)">
<stop/>
<stop offset="1" stop-opacity="0"/>
</radialGradient>
<radialGradient id="paint8_radial_2695_20766" cx="0" cy="0" r="1" gradientUnits="userSpaceOnUse" gradientTransform="translate(67.8112 35.2803) rotate(90) scale(25.7339 114.98)">
<stop/>
<stop offset="1" stop-opacity="0"/>
</radialGradient>
</defs>
</svg>
