<svg width="65" height="109" viewBox="0 0 65 109" fill="none" xmlns="http://www.w3.org/2000/svg">
<path d="M18.6858 99.4311L5.0004 87.4698L38.7252 7.50012C44.1016 12.1251 55.6364 21.8536 58.7645 23.7674C62.6746 26.1596 64.6297 28.5518 64.6297 33.8148V76.4655C64.6297 80.2931 60.7196 82.2069 58.7645 82.6854V109H28.9499L22.5959 100.388L18.6858 99.4311Z" fill="url(#paint0_radial_161_6561)"/>
<path d="M18.6858 99.4311L5.0004 87.4698L38.7252 7.50012C44.1016 12.1251 55.6364 21.8536 58.7645 23.7674C62.6746 26.1596 64.6297 28.5518 64.6297 33.8148V76.4655C64.6297 80.2931 60.7196 82.2069 58.7645 82.6854V109H28.9499L22.5959 100.388L18.6858 99.4311Z" fill="url(#paint1_radial_161_6561)"/>
<path d="M18.6858 99.4311L5.0004 87.4698L38.7252 7.50012C44.1016 12.1251 55.6364 21.8536 58.7645 23.7674C62.6746 26.1596 64.6297 28.5518 64.6297 33.8148V76.4655C64.6297 80.2931 60.7196 82.2069 58.7645 82.6854V109H28.9499L22.5959 100.388L18.6858 99.4311Z" fill="url(#paint2_radial_161_6561)"/>
<path d="M18.6858 99.4311L5.0004 87.4698L38.7252 7.50012C44.1016 12.1251 55.6364 21.8536 58.7645 23.7674C62.6746 26.1596 64.6297 28.5518 64.6297 33.8148V76.4655C64.6297 80.2931 60.7196 82.2069 58.7645 82.6854V109H28.9499L22.5959 100.388L18.6858 99.4311Z" fill="url(#paint3_radial_161_6561)"/>
<rect x="5.97806" y="71.6816" width="33.236" height="11.4828" fill="#1B1D20"/>
<rect x="5.97806" y="64.9824" width="33.236" height="6.69828" fill="#363D46"/>
<rect x="5.97806" y="49.6719" width="33.236" height="15.3103" fill="#1B1D20"/>
<path d="M6 0H39V38H6V0Z" fill="#252B32"/>
<rect x="5.97806" y="38.1895" width="33.236" height="11.4828" fill="#363D46"/>
<rect x="7" width="2" height="37" fill="#1F2226"/>
<rect x="36" width="2" height="37" fill="#1F2226"/>
<path d="M7 0H38L36.1765 12H8.9375L7 0Z" fill="#131516"/>
<path fill-rule="evenodd" clip-rule="evenodd" d="M23.5739 50.6289H6.95755V64.0255H23.5739H23.5756H38.2368V50.6289H23.5756H23.5739Z" fill="#B8A26A"/>
<g style="mix-blend-mode:screen" filter="url(#filter0_f_161_6561)">
<path fill-rule="evenodd" clip-rule="evenodd" d="M23.5739 50.6289H6.95755V64.0255H23.5739H23.5756H38.2368V50.6289H23.5756H23.5739Z" fill="#DDBC66"/>
</g>
<rect x="6.95575" y="74.5508" width="4.88765" height="4.78448" rx="2.39224" fill="#0C0D0E"/>
<rect x="33.3488" y="74.5508" width="4.88765" height="4.78448" rx="2.39224" fill="#0C0D0E"/>
<rect x="6.95575" y="75.5078" width="4.88765" height="4.78448" rx="2.39224" fill="#EEEEEE"/>
<rect x="13.6095" y="73.5938" width="18.5731" height="8.61207" fill="#363D46"/>
<path fill-rule="evenodd" clip-rule="evenodd" d="M14.5859 74.5508H15.5634V81.2491H14.5859V74.5508ZM16.5412 74.5508H17.5188V81.2491H16.5412V74.5508ZM19.4741 74.5508H18.4966V81.2491H19.4741V74.5508ZM20.4519 74.5508H21.4294V81.2491H20.4519V74.5508ZM23.3848 74.5508H22.4072V81.2491H23.3848V74.5508ZM24.3626 74.5508H25.3401V81.2491H24.3626V74.5508ZM27.2954 74.5508H26.3179V81.2491H27.2954V74.5508ZM28.2732 74.5508H29.2508V81.2491H28.2732V74.5508ZM31.2021 74.5508H30.2246V81.2491H31.2021V74.5508Z" fill="#1B1D20"/>
<rect x="33.3488" y="75.5078" width="4.88765" height="4.78448" rx="2.39224" fill="#EEEEEE"/>
<g style="mix-blend-mode:screen" filter="url(#filter1_f_161_6561)">
<rect x="6.95575" y="75.5078" width="4.88765" height="4.78448" fill="white"/>
</g>
<g style="mix-blend-mode:screen" filter="url(#filter2_f_161_6561)">
<rect x="33.3488" y="75.5078" width="4.88765" height="4.78448" fill="white"/>
</g>
<path fill-rule="evenodd" clip-rule="evenodd" d="M5.97753 83.1638H5V82.2069L5.97753 81.25V83.1638ZM5 83.1641H40.1911V86.9916H5V83.1641ZM40.192 83.1638H39.2145V81.25L40.192 82.2069V83.1638Z" fill="#363D46"/>
<rect x="5.0004" y="84.1211" width="35.1911" height="3.82759" fill="#1B1D20"/>
<rect x="6.5" y="0.5" width="32" height="37" stroke="#404A56"/>
<ellipse cx="8.57586" cy="44.5" rx="1.53234" ry="2.5" fill="#0C0D0E"/>
<ellipse cx="36.1581" cy="44.5" rx="1.53234" ry="2.5" fill="#0C0D0E"/>
<rect x="7.04352" y="44" width="3.06469" height="3" rx="1.5" fill="#EEEEEE"/>
<rect x="34.6257" y="44" width="3.06469" height="3" rx="1.5" fill="#EEEEEE"/>
<g style="mix-blend-mode:screen" filter="url(#filter3_f_161_6561)">
<rect x="7.04352" y="44" width="3.06469" height="3" fill="white"/>
</g>
<g style="mix-blend-mode:screen" filter="url(#filter4_f_161_6561)">
<rect x="34.6257" y="44" width="3.06469" height="3" fill="white"/>
</g>
<defs>
<filter id="filter0_f_161_6561" x="0.95755" y="44.6289" width="43.2793" height="25.3966" filterUnits="userSpaceOnUse" color-interpolation-filters="sRGB">
<feFlood flood-opacity="0" result="BackgroundImageFix"/>
<feBlend mode="normal" in="SourceGraphic" in2="BackgroundImageFix" result="shape"/>
<feGaussianBlur stdDeviation="3" result="effect1_foregroundBlur_161_6561"/>
</filter>
<filter id="filter1_f_161_6561" x="0.95575" y="69.5078" width="16.8876" height="16.7844" filterUnits="userSpaceOnUse" color-interpolation-filters="sRGB">
<feFlood flood-opacity="0" result="BackgroundImageFix"/>
<feBlend mode="normal" in="SourceGraphic" in2="BackgroundImageFix" result="shape"/>
<feGaussianBlur stdDeviation="3" result="effect1_foregroundBlur_161_6561"/>
</filter>
<filter id="filter2_f_161_6561" x="27.3488" y="69.5078" width="16.8876" height="16.7844" filterUnits="userSpaceOnUse" color-interpolation-filters="sRGB">
<feFlood flood-opacity="0" result="BackgroundImageFix"/>
<feBlend mode="normal" in="SourceGraphic" in2="BackgroundImageFix" result="shape"/>
<feGaussianBlur stdDeviation="3" result="effect1_foregroundBlur_161_6561"/>
</filter>
<filter id="filter3_f_161_6561" x="1.04352" y="38" width="15.0647" height="15" filterUnits="userSpaceOnUse" color-interpolation-filters="sRGB">
<feFlood flood-opacity="0" result="BackgroundImageFix"/>
<feBlend mode="normal" in="SourceGraphic" in2="BackgroundImageFix" result="shape"/>
<feGaussianBlur stdDeviation="3" result="effect1_foregroundBlur_161_6561"/>
</filter>
<filter id="filter4_f_161_6561" x="28.6257" y="38" width="15.0647" height="15" filterUnits="userSpaceOnUse" color-interpolation-filters="sRGB">
<feFlood flood-opacity="0" result="BackgroundImageFix"/>
<feBlend mode="normal" in="SourceGraphic" in2="BackgroundImageFix" result="shape"/>
<feGaussianBlur stdDeviation="3" result="effect1_foregroundBlur_161_6561"/>
</filter>
<radialGradient id="paint0_radial_161_6561" cx="0" cy="0" r="1" gradientUnits="userSpaceOnUse" gradientTransform="translate(24.551 42.0174) scale(51.3203 128.526)">
<stop/>
<stop offset="0.810344" stop-color="#020202" stop-opacity="0"/>
</radialGradient>
<radialGradient id="paint1_radial_161_6561" cx="0" cy="0" r="1" gradientUnits="userSpaceOnUse" gradientTransform="translate(20.6409 85.0778) rotate(90) scale(9.09051 34.8544)">
<stop/>
<stop offset="1" stop-opacity="0"/>
</radialGradient>
<radialGradient id="paint2_radial_161_6561" cx="0" cy="0" r="1" gradientUnits="userSpaceOnUse" gradientTransform="translate(39.2139 64.5045) scale(11.7304 31.7646)">
<stop/>
<stop offset="1" stop-opacity="0"/>
</radialGradient>
<radialGradient id="paint3_radial_161_6561" cx="0" cy="0" r="1" gradientUnits="userSpaceOnUse" gradientTransform="translate(36.2813 19.5303) scale(18.5731 66.8861)">
<stop/>
<stop offset="1" stop-opacity="0"/>
</radialGradient>
</defs>
</svg>
