<svg width="147" height="75" viewBox="0 0 147 75" fill="none" xmlns="http://www.w3.org/2000/svg">
<path d="M18.002 64L5.00198 46L6.00198 44L64.002 38H104.502L124.502 45.5V20.5C130.502 26.3333 143.002 38.9 145.002 42.5C147.502 47 146.502 60.5 146.502 67.5C146.502 73.1 143.835 74.8333 142.502 75L55.002 74L44.002 52H37.502L49.502 75H34.002L23.502 65L18.002 64Z" fill="url(#paint0_radial_161_6722)"/>
<path d="M18.002 64L5.00198 46L6.00198 44L64.002 38H104.502L124.502 45.5V20.5C130.502 26.3333 143.002 38.9 145.002 42.5C147.502 47 146.502 60.5 146.502 67.5C146.502 73.1 143.835 74.8333 142.502 75L55.002 74L44.002 52H37.502L49.502 75H34.002L23.502 65L18.002 64Z" fill="url(#paint1_radial_161_6722)"/>
<path d="M18.002 64L5.00198 46L6.00198 44L64.002 38H104.502L124.502 45.5V20.5C130.502 26.3333 143.002 38.9 145.002 42.5C147.502 47 146.502 60.5 146.502 67.5C146.502 73.1 143.835 74.8333 142.502 75L55.002 74L44.002 52H37.502L49.502 75H34.002L23.502 65L18.002 64Z" fill="url(#paint2_radial_161_6722)"/>
<path d="M18.002 64L5.00198 46L6.00198 44L64.002 38H104.502L124.502 45.5V20.5C130.502 26.3333 143.002 38.9 145.002 42.5C147.502 47 146.502 60.5 146.502 67.5C146.502 73.1 143.835 74.8333 142.502 75L55.002 74L44.002 52H37.502L49.502 75H34.002L23.502 65L18.002 64Z" fill="url(#paint3_radial_161_6722)"/>
<path d="M18.002 64L5.00198 46L6.00198 44L64.002 38H104.502L124.502 45.5V20.5C130.502 26.3333 143.002 38.9 145.002 42.5C147.502 47 146.502 60.5 146.502 67.5C146.502 73.1 143.835 74.8333 142.502 75L55.002 74L44.002 52H37.502L49.502 75H34.002L23.502 65L18.002 64Z" fill="url(#paint4_radial_161_6722)"/>
<path fill-rule="evenodd" clip-rule="evenodd" d="M34 45.5V50.5H30.9316C29.4587 51.4367 27.5654 52 25.5 52C23.4346 52 21.5413 51.4367 20.0684 50.5H17V46V45.5V45H17.0248C17.3587 41.6438 21.0256 39 25.5 39C29.9745 39 33.6414 41.6438 33.9753 45H34V45.5Z" fill="#0C0D0E"/>
<path d="M7.00003 45.8711V34.3711L13 31.3711L21 16.3711H37V46.0004H36L31 40.8711H20L15 45.8711H7.00003Z" fill="#1B1D20"/>
<path d="M37 4.37109V16.3711H21V4.37109H37Z" fill="#363D46"/>
<path d="M21 4.37109V16.3711L13 31.3711V19.3711L21 4.37109Z" fill="#515862"/>
<path d="M13 19.3711V31.3711L7.00003 34.3711V22.3711L13 19.3711Z" fill="#363D46"/>
<path d="M7.00003 42.8711V35.3711H5.50003V43.3711H8.50003L10 42.8711H7.00003Z" fill="#363D46"/>
<path d="M10 45.8711V42.8711L8.50003 43.3711H5.50003V46.3711H8.50003L10 45.8711Z" fill="#1B1D20"/>
<ellipse cx="25.5" cy="49.5" rx="8.5" ry="6.5" fill="#16171A"/>
<ellipse cx="25.5" cy="49.5" rx="4.5" ry="3.5" fill="#455255"/>
<ellipse cx="25.5" cy="48.5" rx="3.5" ry="2.5" fill="#576C71"/>
<path fill-rule="evenodd" clip-rule="evenodd" d="M105 45.5V50.5H101.932C100.459 51.4367 98.5654 52 96.5 52C94.4346 52 92.5413 51.4367 91.0684 50.5H88V46V45.5V45H88.0248C88.3586 41.6438 92.0256 39 96.5 39C100.974 39 104.641 41.6438 104.975 45H105V45.5Z" fill="#0C0D0E"/>
<ellipse cx="96.5" cy="49.5" rx="8.5" ry="6.5" fill="#16171A"/>
<ellipse cx="96.5" cy="49.5" rx="4.5" ry="3.5" fill="#455255"/>
<ellipse cx="96.5" cy="48.5" rx="3.5" ry="2.5" fill="#576C71"/>
<path fill-rule="evenodd" clip-rule="evenodd" d="M86.0039 45.5V50.5H82.9355C81.4626 51.4367 79.5693 52 77.5039 52C75.4385 52 73.5452 51.4367 72.0723 50.5H69.0039V46V45.5V45H69.0287C69.3626 41.6438 73.0295 39 77.5039 39C81.9783 39 85.6453 41.6438 85.9791 45H86.0039V45.5Z" fill="#0C0D0E"/>
<ellipse cx="77.5039" cy="49.5" rx="8.5" ry="6.5" fill="#16171A"/>
<ellipse cx="77.5039" cy="49.5" rx="4.5" ry="3.5" fill="#455255"/>
<ellipse cx="77.5039" cy="48.5" rx="3.5" ry="2.5" fill="#576C71"/>
<path d="M30 30H13.7266V18L20.1438 6V18H30V30Z" fill="#B8A26A"/>
<g style="mix-blend-mode:screen" filter="url(#filter0_f_161_6722)">
<path d="M30 30H13.7266V18L20.1438 6V18H30V30Z" fill="#DDBC66"/>
</g>
<path d="M15.5 45V30H30V40.5H20L15.5 45Z" fill="#272B30"/>
<path fill-rule="evenodd" clip-rule="evenodd" d="M72.4999 41H37V46H67.4999L72.4999 41ZM101.5 41L106.5 46H125V41H101.5Z" fill="#1B1D20"/>
<path fill-rule="evenodd" clip-rule="evenodd" d="M125.004 35H40.0039V42H71.6125L72.6375 41H100.912L101.938 42H125.004V35Z" fill="#1B1D20"/>
<rect x="37.0039" y="19" width="3" height="22" fill="#272B30"/>
<rect x="40.0039" y="12" width="85" height="23" fill="#0F1012"/>
<rect x="40.0039" width="85" height="12" fill="#1B1D20"/>
<path d="M72.5 41.3711L67 46.8711V45.8711L72.5 40.3711H101.5L107 45.8711V46.8711L101.5 41.3711H72.5Z" fill="#0D1217"/>
<rect width="0.5" height="4" transform="matrix(-1 0 0 1 7.00003 35)" fill="white"/>
<rect width="0.5" height="4" transform="matrix(-1 0 0 1 7.00003 25)" fill="white"/>
<path d="M20 41.3711L14.5 46.8711V45.8711L20 40.3711H31L36.5 45.8711V46.8711L31 41.3711H20Z" fill="#0D1217"/>
<path d="M8.50003 29.5V23L8.00003 24.5V30.5L12 29L8.50003 29.5Z" fill="#1B1D20"/>
<defs>
<filter id="filter0_f_161_6722" x="7.72659" y="0" width="28.2734" height="36" filterUnits="userSpaceOnUse" color-interpolation-filters="sRGB">
<feFlood flood-opacity="0" result="BackgroundImageFix"/>
<feBlend mode="normal" in="SourceGraphic" in2="BackgroundImageFix" result="shape"/>
<feGaussianBlur stdDeviation="3" result="effect1_foregroundBlur_161_6722"/>
</filter>
<radialGradient id="paint0_radial_161_6722" cx="0" cy="0" r="1" gradientUnits="userSpaceOnUse" gradientTransform="translate(70.502 36.5) rotate(91.1935) scale(48.0104 146.093)">
<stop offset="0.049745"/>
<stop offset="0.780137" stop-color="#020202" stop-opacity="0"/>
</radialGradient>
<radialGradient id="paint1_radial_161_6722" cx="0" cy="0" r="1" gradientUnits="userSpaceOnUse" gradientTransform="translate(24.502 52.5) rotate(90) scale(7 15.8629)">
<stop/>
<stop offset="1" stop-opacity="0"/>
</radialGradient>
<radialGradient id="paint2_radial_161_6722" cx="0" cy="0" r="1" gradientUnits="userSpaceOnUse" gradientTransform="translate(95.502 52.5) rotate(90) scale(8.5 19.2621)">
<stop/>
<stop offset="1" stop-opacity="0"/>
</radialGradient>
<radialGradient id="paint3_radial_161_6722" cx="0" cy="0" r="1" gradientUnits="userSpaceOnUse" gradientTransform="translate(77.502 53) rotate(90) scale(8 18.1291)">
<stop/>
<stop offset="1" stop-opacity="0"/>
</radialGradient>
<radialGradient id="paint4_radial_161_6722" cx="0" cy="0" r="1" gradientUnits="userSpaceOnUse" gradientTransform="translate(66.002 37) rotate(90) scale(25.5 111.666)">
<stop/>
<stop offset="1" stop-opacity="0"/>
</radialGradient>
</defs>
</svg>
