<svg width="72" height="47" viewBox="0 0 72 47" fill="none" xmlns="http://www.w3.org/2000/svg">
<path fill-rule="evenodd" clip-rule="evenodd" d="M27.2597 15.1386C27.3412 14.5429 27.3833 13.9347 27.3833 13.3167C27.3833 5.96207 21.4213 0 14.0667 0C6.71207 0 0.75 5.96207 0.75 13.3167C0.75 20.6713 6.71207 26.6333 14.0667 26.6333C14.2637 26.6333 14.4597 26.6291 14.6546 26.6206C14.2713 27.9956 14.0664 29.4449 14.0664 30.9421C14.0664 39.8109 21.256 47.0005 30.1247 47.0005C37.0788 47.0005 43.0004 42.5802 45.2332 36.396C46.9968 38.1107 49.4043 39.1667 52.0583 39.1667C57.4661 39.1667 61.85 34.7828 61.85 29.375C61.85 23.9672 57.4661 19.5833 52.0583 19.5833C48.9017 19.5833 46.0939 21.0771 44.3033 23.3962C41.602 18.3311 36.266 14.8838 30.1247 14.8838C29.1469 14.8838 28.1894 14.9712 27.2597 15.1386ZM71.25 9.79167C71.25 15.1995 66.8661 19.5833 61.4583 19.5833C56.0505 19.5833 51.6667 15.1995 51.6667 9.79167C51.6667 4.38388 56.0505 0 61.4583 0C66.8661 0 71.25 4.38388 71.25 9.79167Z" fill="white"/>
</svg>
