<svg width="71" height="55" viewBox="0 0 71 55" fill="none" xmlns="http://www.w3.org/2000/svg">
<path d="M22.2369 3.95884C23.9735 3.84454 25.474 5.1597 25.5883 6.89634L25.9953 13.0804C26.1096 14.8171 27.6101 16.1322 29.3467 16.0179L35.5308 15.6109C37.2675 15.4966 38.5826 13.9961 38.4683 12.2595L38.0613 6.07538C37.947 4.33874 39.2622 2.83826 40.9988 2.72395L59.6559 1.49596C61.3925 1.38166 62.893 2.69682 63.0073 4.43346L65.0563 35.5636C65.1706 37.3002 63.8554 38.8007 62.1188 38.915L55.9347 39.322C54.1981 39.4363 52.8829 40.9368 52.9972 42.6735L53.4042 48.8576C53.5185 50.5942 52.2034 52.0947 50.4667 52.209L41.1382 52.823Lnan nanL41.1382 52.823L28.6652 53.6439Lnan nanL28.6652 53.6439L19.3366 54.2579C17.6 54.3722 16.0995 53.0571 15.9852 51.3204L15.5782 45.1363C15.4639 43.3997 13.9634 42.0845 12.2267 42.1988L6.04264 42.6059C4.306 42.7202 2.80552 41.405 2.69122 39.6684L0.642267 8.53826C0.527964 6.80162 1.84312 5.30114 3.57976 5.18683L22.2369 3.95884Z" fill="#585858"/>
<path d="M13.9363 20.1904C13.822 18.4537 15.1372 16.9532 16.8738 16.8389L23.0579 16.4319C24.7946 16.3176 26.295 17.6328 26.4093 19.3694L27.6373 38.0265C27.7516 39.7631 26.4365 41.2636 24.6998 41.3779L18.5157 41.785C16.7791 41.8993 15.2786 40.5841 15.1643 38.8475L13.9363 20.1904Z" fill="#241712"/>
<path d="M38.8824 18.5484C38.7681 16.8118 40.0832 15.3113 41.8199 15.197L48.0039 14.79C49.7406 14.6757 51.2411 15.9908 51.3554 17.7275L52.5834 36.3846C52.6977 38.1212 51.3825 39.6217 49.6459 39.736L43.4618 40.143C41.7251 40.2573 40.2247 38.9422 40.1104 37.2055L38.8824 18.5484Z" fill="#241712"/>
<path d="M27.4699 3.38414C29.2065 3.26983 30.707 4.58499 30.8213 6.32163L31.2284 12.5057C31.3427 14.2424 32.8431 15.5575 34.5798 15.4432L40.7639 15.0362C42.5005 14.9219 43.8157 13.4214 43.7014 11.6848L43.2943 5.50067C43.18 3.76403 44.4952 2.26355 46.2318 2.14925L64.8889 0.921257C66.6256 0.806953 68.1261 2.12211 68.2404 3.85875L70.2893 34.9889C70.4036 36.7255 69.0885 38.226 67.3518 38.3403L61.1677 38.7473C59.4311 38.8616 58.1159 40.3621 58.2302 42.0987L58.6373 48.2828C58.7516 50.0195 57.4364 51.52 55.6998 51.6343L46.3712 52.2483Lnan nanL46.3712 52.2483L33.8982 53.0692Lnan nanL33.8982 53.0692L24.5696 53.6832C22.833 53.7975 21.3325 52.4824 21.2182 50.7457L20.8112 44.5616C20.6969 42.825 19.1964 41.5098 17.4598 41.6241L11.2757 42.0312C9.53904 42.1455 8.03855 40.8303 7.92425 39.0937L5.8753 7.96355C5.761 6.22691 7.07616 4.72643 8.81279 4.61213L27.4699 3.38414Z" fill="white"/>
<path d="M18.9086 19.3871C18.7943 17.6505 20.1095 16.15 21.8461 16.0357L28.0768 15.6256C29.8134 15.5113 31.3139 16.8265 31.4282 18.5631L32.6815 37.6045C32.7958 39.3412 31.4807 40.8417 29.744 40.956L23.5133 41.3661C21.7767 41.4804 20.2762 40.1652 20.1619 38.4286L18.9086 19.3871Z" fill="#110B09"/>
<path d="M43.9478 17.7391C43.8335 16.0024 45.1487 14.502 46.8853 14.3877L53.116 13.9776C54.8526 13.8633 56.3531 15.1784 56.4674 16.9151L57.7207 35.9565C57.835 37.6931 56.5198 39.1936 54.7832 39.3079L48.5525 39.718C46.8159 39.8323 45.3154 38.5171 45.2011 36.7805L43.9478 17.7391Z" fill="#110B09"/>
</svg>
