<svg width="430" height="91" viewBox="0 0 430 91" fill="none" xmlns="http://www.w3.org/2000/svg">
<path d="M430 -5C409.603 -5 430 -5 430 -5C430 -5 450.397 -5 430 -5H0.000803351C0.000803351 -5 0 83.9866 0 72.3887V69.39C0.000713525 80.9873 9.35325 90.3887 20.9508 90.3887L209.474 90.3887C229.872 90.3887 236.625 83.2904 243.378 76.1921C250.131 69.0939 256.885 61.9956 277.282 61.9956L409 61.9956C420.598 61.9956 430 52.5936 430 40.9956V-5C441.598 -5 430 -5 430 -5Z" fill="url(#paint0_linear_2758_6092)"/>
<defs>
<linearGradient id="paint0_linear_2758_6092" x1="219.533" y1="90.3887" x2="219.533" y2="-5" gradientUnits="userSpaceOnUse">
<stop stop-color="#2B2B2B"/>
<stop offset="1"/>
</linearGradient>
</defs>
</svg>
