<svg width="76" height="58" viewBox="0 0 76 58" fill="none" xmlns="http://www.w3.org/2000/svg">
<path d="M22.8458 0.934699C21.122 0.695036 19.5303 1.89818 19.2906 3.62199L18.4372 9.76043C18.1975 11.4842 16.6058 12.6874 14.882 12.4477L8.74354 11.5943C7.01972 11.3546 5.42801 12.5578 5.18835 14.2816L0.892253 45.1818C0.65259 46.9056 1.85573 48.4974 3.57954 48.737L59.2416 56.4758C60.9654 56.7154 62.5572 55.5123 62.7968 53.7885L67.0929 22.8882C67.3326 21.1644 66.1294 19.5727 64.4056 19.333L58.2672 18.4796C56.5434 18.2399 55.3402 16.6482 55.5799 14.9244L56.4333 8.78598C56.673 7.06217 55.4699 5.47046 53.746 5.23079L22.8458 0.934699Z" fill="#585858"/>
<path d="M17.5693 16.003C17.809 14.2791 19.4007 13.076 21.1245 13.3157L27.263 14.1691C28.9868 14.4088 30.1899 16.0005 29.9503 17.7243L27.3755 36.2436C27.1358 37.9674 25.5441 39.1706 23.8203 38.9309L17.6819 38.0775C15.9581 37.8378 14.7549 36.2461 14.9946 34.5223L17.5693 16.003Z" fill="#241712"/>
<path d="M42.3312 19.4456C42.5708 17.7218 44.1625 16.5187 45.8864 16.7583L52.0248 17.6118C53.7486 17.8514 54.9518 19.4431 54.7121 21.1669L52.1373 39.6863C51.8977 41.4101 50.306 42.6133 48.5821 42.3736L42.4437 41.5202C40.7199 41.2805 39.5167 39.6888 39.7564 37.965L42.3312 19.4456Z" fill="#241712"/>
<path d="M31.5158 2.14014C29.792 1.90048 28.2003 3.10362 27.9606 4.82743L27.1072 10.9659C26.8675 12.6897 25.2758 13.8928 23.552 13.6532L17.4136 12.7997C15.6898 12.5601 14.0981 13.7632 13.8584 15.487L9.5623 46.3873C9.32263 48.1111 10.5258 49.7028 12.2496 49.9425L67.9117 57.6812C69.6355 57.9209 71.2272 56.7177 71.4669 54.9939L75.763 24.0937C76.0026 22.3699 74.7995 20.7781 73.0757 20.5385L66.9372 19.6851C65.2134 19.4454 64.0103 17.8537 64.2499 16.1299L65.1034 9.99143C65.343 8.26761 64.1399 6.6759 62.4161 6.43624L31.5158 2.14014Z" fill="white"/>
<path d="M26.0303 16.9318C26.2699 15.208 27.8617 14.0048 29.5855 14.2445L35.7701 15.1044C37.494 15.344 38.6971 16.9357 38.4574 18.6595L35.8296 37.5604C35.59 39.2842 33.9983 40.4873 32.2745 40.2477L26.0898 39.3878C24.366 39.1481 23.1628 37.5564 23.4025 35.8326L26.0303 16.9318Z" fill="#110B09"/>
<path d="M50.8846 20.3873C51.1243 18.6635 52.716 17.4604 54.4398 17.7L60.6245 18.5599C62.3483 18.7995 63.5514 20.3913 63.3117 22.1151L60.6839 41.0159C60.4443 42.7397 58.8526 43.9429 57.1288 43.7032L50.9441 42.8433C49.2203 42.6037 48.0171 41.0119 48.2568 39.2881L50.8846 20.3873Z" fill="#110B09"/>
</svg>
